<?xml version="1.0" encoding="UTF-8" standalone="no"?>
<!-- Created with Inkscape (http://www.inkscape.org/) -->

<svg
   xmlns:dc="http://purl.org/dc/elements/1.1/"
   xmlns:cc="http://creativecommons.org/ns#"
   xmlns:rdf="http://www.w3.org/1999/02/22-rdf-syntax-ns#"
   xmlns:svg="http://www.w3.org/2000/svg"
   xmlns="http://www.w3.org/2000/svg"
   xmlns:xlink="http://www.w3.org/1999/xlink"
   xmlns:sodipodi="http://sodipodi.sourceforge.net/DTD/sodipodi-0.dtd"
   xmlns:inkscape="http://www.inkscape.org/namespaces/inkscape"
   version="1.1"
   id="svg2"
   xml:space="preserve"
   width="270"
   height="230"
   viewBox="0 0 270 230"
   sodipodi:docname="mercode-floppy.svg"
   inkscape:version="0.92.4 5da689c313, 2019-01-14"><metadata
     id="metadata8"><rdf:RDF><cc:Work
         rdf:about=""><dc:format>image/svg+xml</dc:format><dc:type
           rdf:resource="http://purl.org/dc/dcmitype/StillImage" /><dc:title></dc:title></cc:Work></rdf:RDF></metadata><defs
     id="defs6"><clipPath
       clipPathUnits="userSpaceOnUse"
       id="clipPath828"><g
         id="g832"
         transform="translate(0,-792)"
         style="display:inline"><path
           d="m 20.7,18 h 174.6 c 4.97,0 9,4.03 9,9 v 126 c 0,4.97 -4.03,9 -9,9 H 20.7 c -4.97,0 -9,-4.03 -9,-9 V 27 c 0,-4.97 4.03,-9 9,-9 m 198,0 h 174.6 c 4.97,0 9,4.03 9,9 v 126 c 0,4.97 -4.03,9 -9,9 H 218.7 c -4.97,0 -9,-4.03 -9,-9 V 27 c 0,-4.97 4.03,-9 9,-9 m 198,0 h 174.6 c 4.97,0 9,4.03 9,9 v 126 c 0,4.97 -4.03,9 -9,9 H 416.7 c -4.97,0 -9,-4.03 -9,-9 V 27 c 0,-4.97 4.03,-9 9,-9 m -396,153 h 174.6 c 4.97,0 9,4.03 9,9 v 126 c 0,4.97 -4.03,9 -9,9 H 20.7 c -4.97,0 -9,-4.03 -9,-9 V 180 c 0,-4.97 4.03,-9 9,-9 m 198,0 h 174.6 c 4.97,0 9,4.03 9,9 v 126 c 0,4.97 -4.03,9 -9,9 H 218.7 c -4.97,0 -9,-4.03 -9,-9 V 180 c 0,-4.97 4.03,-9 9,-9 m 198,0 h 174.6 c 4.97,0 9,4.03 9,9 v 126 c 0,4.97 -4.03,9 -9,9 H 416.7 c -4.97,0 -9,-4.03 -9,-9 V 180 c 0,-4.97 4.03,-9 9,-9 m -396,153 h 174.6 c 4.97,0 9,4.03 9,9 v 126 c 0,4.97 -4.03,9 -9,9 H 20.7 c -4.97,0 -9,-4.03 -9,-9 V 333 c 0,-4.97 4.03,-9 9,-9 m 198,0 h 174.6 c 4.97,0 9,4.03 9,9 v 126 c 0,4.97 -4.03,9 -9,9 H 218.7 c -4.97,0 -9,-4.03 -9,-9 V 333 c 0,-4.97 4.03,-9 9,-9 m 198,0 h 174.6 c 4.97,0 9,4.03 9,9 v 126 c 0,4.97 -4.03,9 -9,9 H 416.7 c -4.97,0 -9,-4.03 -9,-9 V 333 c 0,-4.97 4.03,-9 9,-9 m -396,153 h 174.6 c 4.97,0 9,4.03 9,9 v 126 c 0,4.97 -4.03,9 -9,9 H 20.7 c -4.97,0 -9,-4.03 -9,-9 V 486 c 0,-4.97 4.03,-9 9,-9 m 198,0 h 174.6 c 4.97,0 9,4.03 9,9 v 126 c 0,4.97 -4.03,9 -9,9 H 218.7 c -4.97,0 -9,-4.03 -9,-9 V 486 c 0,-4.97 4.03,-9 9,-9 m 198,0 h 174.6 c 4.97,0 9,4.03 9,9 v 126 c 0,4.97 -4.03,9 -9,9 H 416.7 c -4.97,0 -9,-4.03 -9,-9 V 486 c 0,-4.97 4.03,-9 9,-9 m -396,153 h 174.6 c 4.97,0 9,4.03 9,9 v 126 c 0,4.97 -4.03,9 -9,9 H 20.7 c -4.97,0 -9,-4.03 -9,-9 V 639 c 0,-4.97 4.03,-9 9,-9 m 198,0 h 174.6 c 4.97,0 9,4.03 9,9 v 126 c 0,4.97 -4.03,9 -9,9 H 218.7 c -4.97,0 -9,-4.03 -9,-9 V 639 c 0,-4.97 4.03,-9 9,-9 m 198,0 h 174.6 c 4.97,0 9,4.03 9,9 v 126 c 0,4.97 -4.03,9 -9,9 H 416.7 c -4.97,0 -9,-4.03 -9,-9 V 639 c 0,-4.97 4.03,-9 9,-9"
           style="fill:none;stroke:#000000;stroke-width:1;stroke-linecap:butt;stroke-linejoin:miter;stroke-miterlimit:10;stroke-dasharray:none;stroke-opacity:1"
           id="path830"
           inkscape:connector-curvature="0" /></g></clipPath><linearGradient
       inkscape:collect="always"
       id="linearGradient1106"><stop
         style="stop-color:#ff1d11;stop-opacity:0.90196079"
         offset="0"
         id="stop1102" /><stop
         style="stop-color:#ffa206;stop-opacity:0.78431374"
         offset="1"
         id="stop1104" /></linearGradient><linearGradient
       inkscape:collect="always"
       xlink:href="#linearGradient1106"
       id="linearGradient878"
       x1="13.842817"
       y1="-161.67572"
       x2="202.25137"
       y2="-23.464018"
       gradientUnits="userSpaceOnUse" /></defs><sodipodi:namedview
     pagecolor="#ffffff"
     bordercolor="#666666"
     borderopacity="1"
     objecttolerance="10"
     gridtolerance="10"
     guidetolerance="10"
     inkscape:pageopacity="0"
     inkscape:pageshadow="2"
     inkscape:window-width="1326"
     inkscape:window-height="718"
     id="namedview4"
     showgrid="false"
     inkscape:zoom="1.9799361"
     inkscape:cx="195.69943"
     inkscape:cy="109.03057"
     inkscape:window-x="40"
     inkscape:window-y="25"
     inkscape:window-maximized="1"
     inkscape:current-layer="g10" /><g
     id="g10"
     inkscape:groupmode="layer"
     inkscape:label="ol775"
     transform="matrix(1.3333333,0,0,-1.3333333,0,230)"><rect
       style="opacity:1;fill:url(#linearGradient878);fill-opacity:1;stroke:none;stroke-width:120.05656433;stroke-linecap:butt;stroke-linejoin:round;stroke-miterlimit:4;stroke-dasharray:none;stroke-dashoffset:0;stroke-opacity:1;paint-order:stroke fill markers"
       id="rect823-3"
       width="197.43002"
       height="151.60429"
       x="9.1069727"
       y="-164.99692"
       transform="matrix(1,0,0,-1,-6.4284512,-4.8213384)"
       rx="0.81192511"
       ry="0.52940154"
       clip-path="url(#clipPath828)" /><g
       transform="matrix(0.04315282,0,0,-0.04315282,18.663127,135.63152)"
       id="katman_2"
       data-name="katman 2"><g
         id="katman_3"
         data-name="katman 3"><path
           class="cls-1"
           d="m 976.79,296.75 c -3.2,-7 -6.55,-14 -10.32,-21 A 516.37,516.37 0 0 0 909.41,188.82 C 597.16,335.32 225.36,380.9 13.72,395.08 a 509.25,509.25 0 0 0 22.4,305.77 C 310.75,611.34 749.88,454.07 974.78,298.66 Z"
           id="path8"
           inkscape:connector-curvature="0"
           style="fill:#ffffff" /><path
           class="cls-1"
           d="M 275.77,58 A 509.86,509.86 0 0 0 53.92,283.29 C 180.92,244.15 465.8,146.75 637.5,15.63 A 510.59,510.59 0 0 0 275.77,58 Z"
           id="path10"
           inkscape:connector-curvature="0"
           style="fill:#ffffff" /><path
           class="cls-1"
           d="m 963,753.55 a 1533.14,1533.14 0 0 0 -522.19,264.83 v 0 0.56 A 511.75,511.75 0 0 0 963.58,753.81 Z"
           id="path12"
           inkscape:connector-curvature="0"
           style="fill:#ffffff" /><path
           class="cls-1"
           d="M 1019.61,448.14 258,955.26 a 4.31,4.31 0 0 0 0,0.88 516.07,516.07 0 0 0 100.72,44.34 h -0.37 C 472.14,898.23 705,717.3 1008.42,629.23 l 2.16,-0.77 A 511.61,511.61 0 0 0 1020,448.4 Z"
           id="path14"
           inkscape:connector-curvature="0"
           style="fill:#ffffff" /><path
           class="cls-1"
           d="M 184.24,899.88 C 642.71,637.53 356,648.31 86,794.23 l -0.47,0.57 a 508.31,508.31 0 0 0 94.42,106.68 30.39,30.39 0 0 1 4.29,-1.6 z"
           id="path16"
           inkscape:connector-curvature="0"
           style="fill:#ffffff" /></g></g><g
       transform="matrix(0.39848451,0,0,-0.39848451,73.172541,219.18787)"
       id="layer1"><flowRoot
         transform="matrix(0.26458333,0,0,0.26458333,0,183)"
         style="font-style:normal;font-variant:normal;font-weight:800;font-stretch:normal;font-size:133.33332825px;line-height:1.25;font-family:Raleway;-inkscape-font-specification:'Raleway Ultra-Bold';letter-spacing:0px;word-spacing:0px;fill:#000000;fill-opacity:1;stroke:none"
         id="flowRoot18"
         xml:space="preserve"><flowRegion
           style="font-style:normal;font-variant:normal;font-weight:800;font-stretch:normal;font-size:133.33332825px;font-family:Raleway;-inkscape-font-specification:'Raleway Ultra-Bold'"
           id="flowRegion20"><rect
             style="font-style:normal;font-variant:normal;font-weight:800;font-stretch:normal;font-size:133.33332825px;font-family:Raleway;-inkscape-font-specification:'Raleway Ultra-Bold'"
             y="179.43758"
             x="0"
             height="245.71428"
             width="1117.1428"
             id="rect22" /></flowRegion><flowPara
           id="flowPara24" /></flowRoot><flowRoot
         transform="matrix(0.26458333,0,0,0.26458333,0,183)"
         style="font-style:normal;font-variant:normal;font-weight:800;font-stretch:normal;font-size:133.33332825px;line-height:1.25;font-family:Raleway;-inkscape-font-specification:'Raleway Ultra-Bold';letter-spacing:0px;word-spacing:0px;fill:#000000;fill-opacity:1;stroke:none"
         id="flowRoot26"
         xml:space="preserve"><flowRegion
           style="font-style:normal;font-variant:normal;font-weight:800;font-stretch:normal;font-size:133.33332825px;font-family:Raleway;-inkscape-font-specification:'Raleway Ultra-Bold'"
           id="flowRegion28"><rect
             style="font-style:normal;font-variant:normal;font-weight:800;font-stretch:normal;font-size:133.33332825px;font-family:Raleway;-inkscape-font-specification:'Raleway Ultra-Bold'"
             y="5.1518641"
             x="2.8571429"
             height="277.14285"
             width="1128.5714"
             id="rect30" /></flowRegion><flowPara
           id="flowPara32" /></flowRoot><text
         transform="scale(0.97858712,1.0218814)"
         id="text36"
         y="288.76096"
         x="-5.0065985"
         style="font-style:normal;font-weight:normal;font-size:22.35290527px;line-height:1.25;font-family:sans-serif;letter-spacing:0px;word-spacing:0px;fill:#000000;fill-opacity:1;stroke:none;stroke-width:0.55882263"
         xml:space="preserve"><tspan
           style="font-style:normal;font-variant:normal;font-weight:500;font-stretch:normal;font-size:74.50968933px;line-height:1;font-family:Raleway;-inkscape-font-specification:'Raleway Medium';word-spacing:0px;fill:#ffffff;stroke-width:0.55882263"
           y="288.76096"
           x="-5.0065985"
           id="tspan34">merOS</tspan></text>
</g><flowRoot
       xml:space="preserve"
       id="flowRoot936"
       style="font-style:normal;font-weight:normal;font-size:26.66666603px;line-height:1.25;font-family:sans-serif;letter-spacing:0px;word-spacing:0px;fill:#f5f5f5;fill-opacity:1;stroke:none"
       transform="matrix(0.2283052,0,0,-0.2283052,130.12929,59.48425)"><flowRegion
         id="flowRegion938"
         style="fill:#f5f5f5"><rect
           id="rect940"
           width="246.47261"
           height="123.23631"
           x="84.851227"
           y="138.07784"
           style="fill:#f5f5f5" /></flowRegion><flowPara
         id="flowPara942"
         style="font-style:normal;font-variant:normal;font-weight:500;font-stretch:normal;font-family:Raleway;-inkscape-font-specification:'Raleway Medium';fill:#f5f5f5">os.mercode.org</flowPara></flowRoot><flowRoot
       xml:space="preserve"
       id="flowRoot1325"
       style="font-style:normal;font-weight:normal;font-size:26.66666603px;line-height:1.25;font-family:sans-serif;letter-spacing:0px;word-spacing:0px;fill:#f5f5f5;fill-opacity:1;stroke:none"
       transform="matrix(0.29061367,0,0,-0.29061367,65.398017,126.18329)"><flowRegion
         id="flowRegion1327"
         style="fill:#f5f5f5"><rect
           id="rect1329"
           width="515.62408"
           height="119.67572"
           x="24.189774"
           y="92.629616"
           style="fill:#f5f5f5" /></flowRegion><flowPara
         id="flowPara1331"
         style="font-style:normal;font-variant:normal;font-weight:normal;font-stretch:normal;font-family:Raleway;-inkscape-font-specification:Raleway;fill:#f5f5f5"><flowSpan
   style="font-style:normal;font-variant:normal;font-weight:500;font-stretch:normal;font-family:Raleway;-inkscape-font-specification:'Raleway Medium'"
   id="flowSpan1333">Distro of The 21st Century</flowSpan> </flowPara></flowRoot><flowRoot
       xml:space="preserve"
       id="flowRoot977"
       style="font-style:normal;font-weight:normal;font-size:26.66666603px;line-height:1.25;font-family:sans-serif;letter-spacing:0px;word-spacing:0px;fill:#f5f5f5;fill-opacity:1;stroke:none"
       transform="matrix(0.51283927,0,0,-0.51283927,49.217995,163.44414)"><flowRegion
         id="flowRegion979"
         style="fill:#f5f5f5"><rect
           id="rect981"
           width="146.42583"
           height="37.856434"
           x="169.99681"
           y="26.432384"
           style="fill:#f5f5f5" /></flowRegion><flowPara
         id="flowPara983"
         style="font-style:normal;font-variant:normal;font-weight:500;font-stretch:normal;font-family:'JetBrains Mono';-inkscape-font-specification:'JetBrains Mono Medium';fill:#f5f5f5">___/___</flowPara></flowRoot><rect
       style="opacity:1;fill:#f5f5f5;fill-opacity:1;stroke:none;stroke-width:141.14697266;stroke-linecap:butt;stroke-linejoin:round;stroke-miterlimit:4;stroke-dasharray:none;stroke-dashoffset:0;stroke-opacity:1;paint-order:stroke fill markers"
       id="rect989"
       width="24.432606"
       height="10.227603"
       x="136.36804"
       y="-148.30025"
       transform="scale(1,-1)"
       rx="1.1628606"
       ry="0.51091057" /><rect
       style="opacity:1;fill:#f5f5f5;fill-opacity:1;stroke:none;stroke-width:141.14697266;stroke-linecap:butt;stroke-linejoin:round;stroke-miterlimit:4;stroke-dasharray:none;stroke-dashoffset:0;stroke-opacity:1;paint-order:stroke fill markers"
       id="rect989-6"
       width="24.432604"
       height="10.227603"
       x="169.22896"
       y="-148.30025"
       rx="1.1628606"
       ry="0.51091057"
       transform="scale(1,-1)" /></g></svg>