<?xml version="1.0" encoding="UTF-8" standalone="no"?>
<!-- Created with Inkscape (http://www.inkscape.org/) -->

<svg
   xmlns:dc="http://purl.org/dc/elements/1.1/"
   xmlns:cc="http://creativecommons.org/ns#"
   xmlns:rdf="http://www.w3.org/1999/02/22-rdf-syntax-ns#"
   xmlns:svg="http://www.w3.org/2000/svg"
   xmlns="http://www.w3.org/2000/svg"
   xmlns:xlink="http://www.w3.org/1999/xlink"
   xmlns:sodipodi="http://sodipodi.sourceforge.net/DTD/sodipodi-0.dtd"
   xmlns:inkscape="http://www.inkscape.org/namespaces/inkscape"
   version="1.1"
   id="svg2"
   xml:space="preserve"
   width="63"
   height="63"
   viewBox="0 0 63 63"
   sodipodi:docname="meros-usb.svg"
   inkscape:version="0.92.4 5da689c313, 2019-01-14"><metadata
     id="metadata8"><rdf:RDF><cc:Work
         rdf:about=""><dc:format>image/svg+xml</dc:format><dc:type
           rdf:resource="http://purl.org/dc/dcmitype/StillImage" /><dc:title></dc:title></cc:Work></rdf:RDF></metadata><defs
     id="defs6"><linearGradient
       inkscape:collect="always"
       xlink:href="#linearGradient851"
       id="linearGradient853"
       x1="9.1461887"
       y1="10.297359"
       x2="1015.2269"
       y2="1019.4269"
       gradientUnits="userSpaceOnUse"
       gradientTransform="matrix(0.03551686,0,0,0.03551686,4.9906071,749.81996)" /><linearGradient
       inkscape:collect="always"
       id="linearGradient851"><stop
         style="stop-color:#ff1d11;stop-opacity:1"
         offset="0"
         id="stop847" /><stop
         style="stop-color:#ffa206;stop-opacity:1"
         offset="1"
         id="stop849" /></linearGradient><clipPath
       clipPathUnits="userSpaceOnUse"
       id="clipPath865"><path
         d="m 41.280072,65.897024 c 0,9.940003 -8.06,17.999998 -18,17.999998 -9.94,0 -17.9999999,-8.059995 -17.9999999,-17.999998 0,-9.94 8.0599999,-18 17.9999999,-18 9.94,0 18,8.06 18,18 m 53.999998,0 c 0,9.940003 -8.059995,17.999998 -18.000001,17.999998 -9.939997,0 -17.999997,-8.059995 -17.999997,-17.999998 0,-9.94 8.06,-18 17.999997,-18 9.940006,0 18.000001,8.06 18.000001,18 m 54,0 c 0,9.940003 -8.06,17.999998 -18,17.999998 -9.94,0 -18,-8.059995 -18,-17.999998 0,-9.94 8.06,-18 18,-18 9.94,0 18,8.06 18,18 m 54,0 c 0,9.940003 -8.06,17.999998 -18,17.999998 -9.94,0 -18,-8.059995 -18,-17.999998 0,-9.94 8.06,-18 18,-18 9.94,0 18,8.06 18,18 m 54,0 c 0,9.940003 -8.06,17.999998 -18,17.999998 -9.94,0 -18,-8.059995 -18,-17.999998 0,-9.94 8.06,-18 18,-18 9.94,0 18,8.06 18,18 m 54,0 c 0,9.940003 -8.06,17.999998 -18,17.999998 -9.94,0 -18,-8.059995 -18,-17.999998 0,-9.94 8.06,-18 18,-18 9.94,0 18,8.06 18,18 m 54,0 c 0,9.940003 -8.06,17.999998 -18,17.999998 -9.94,0 -18,-8.059995 -18,-17.999998 0,-9.94 8.06,-18 18,-18 9.94,0 18,8.06 18,18 m 54,0 c 0,9.940003 -8.06,17.999998 -18,17.999998 -9.94,0 -18,-8.059995 -18,-17.999998 0,-9.94 8.06,-18 18,-18 9.94,0 18,8.06 18,18 m 54,0 c 0,9.940003 -8.06,17.999998 -18,17.999998 -9.94,0 -18,-8.059995 -18,-17.999998 0,-9.94 8.06,-18 18,-18 9.94,0 18,8.06 18,18 m 54,0 c 0,9.940003 -8.06,17.999998 -18,17.999998 -9.94,0 -18,-8.059995 -18,-17.999998 0,-9.94 8.06,-18 18,-18 9.94,0 18,8.06 18,18 m 54,0 c 0,9.940003 -8.06,17.999998 -18,17.999998 -9.94,0 -18,-8.059995 -18,-17.999998 0,-9.94 8.06,-18 18,-18 9.94,0 18,8.06 18,18 M 41.280072,119.89702 c 0,9.94 -8.06,18 -18,18 -9.94,0 -17.9999999,-8.06 -17.9999999,-18 0,-9.94 8.0599999,-18 17.9999999,-18 9.94,0 18,8.06 18,18 m 53.999998,0 c 0,9.94 -8.059995,18 -18.000001,18 -9.939997,0 -17.999997,-8.06 -17.999997,-18 0,-9.94 8.06,-18 17.999997,-18 9.940006,0 18.000001,8.06 18.000001,18 m 54,0 c 0,9.94 -8.06,18 -18,18 -9.94,0 -18,-8.06 -18,-18 0,-9.94 8.06,-18 18,-18 9.94,0 18,8.06 18,18 m 54,0 c 0,9.94 -8.06,18 -18,18 -9.94,0 -18,-8.06 -18,-18 0,-9.94 8.06,-18 18,-18 9.94,0 18,8.06 18,18 m 54,0 c 0,9.94 -8.06,18 -18,18 -9.94,0 -18,-8.06 -18,-18 0,-9.94 8.06,-18 18,-18 9.94,0 18,8.06 18,18 m 54,0 c 0,9.94 -8.06,18 -18,18 -9.94,0 -18,-8.06 -18,-18 0,-9.94 8.06,-18 18,-18 9.94,0 18,8.06 18,18 m 54,0 c 0,9.94 -8.06,18 -18,18 -9.94,0 -18,-8.06 -18,-18 0,-9.94 8.06,-18 18,-18 9.94,0 18,8.06 18,18 m 54,0 c 0,9.94 -8.06,18 -18,18 -9.94,0 -18,-8.06 -18,-18 0,-9.94 8.06,-18 18,-18 9.94,0 18,8.06 18,18 m 54,0 c 0,9.94 -8.06,18 -18,18 -9.94,0 -18,-8.06 -18,-18 0,-9.94 8.06,-18 18,-18 9.94,0 18,8.06 18,18 m 54,0 c 0,9.94 -8.06,18 -18,18 -9.94,0 -18,-8.06 -18,-18 0,-9.94 8.06,-18 18,-18 9.94,0 18,8.06 18,18 m 54,0 c 0,9.94 -8.06,18 -18,18 -9.94,0 -18,-8.06 -18,-18 0,-9.94 8.06,-18 18,-18 9.94,0 18,8.06 18,18 m -539.999998,54 c 0,9.94 -8.06,18 -18,18 -9.94,0 -17.9999999,-8.06 -17.9999999,-18 0,-9.94 8.0599999,-18 17.9999999,-18 9.94,0 18,8.06 18,18 m 53.999998,0 c 0,9.94 -8.059995,18 -18.000001,18 -9.939997,0 -17.999997,-8.06 -17.999997,-18 0,-9.94 8.06,-18 17.999997,-18 9.940006,0 18.000001,8.06 18.000001,18 m 54,0 c 0,9.94 -8.06,18 -18,18 -9.94,0 -18,-8.06 -18,-18 0,-9.94 8.06,-18 18,-18 9.94,0 18,8.06 18,18 m 54,0 c 0,9.94 -8.06,18 -18,18 -9.94,0 -18,-8.06 -18,-18 0,-9.94 8.06,-18 18,-18 9.94,0 18,8.06 18,18 m 54,0 c 0,9.94 -8.06,18 -18,18 -9.94,0 -18,-8.06 -18,-18 0,-9.94 8.06,-18 18,-18 9.94,0 18,8.06 18,18 m 54,0 c 0,9.94 -8.06,18 -18,18 -9.94,0 -18,-8.06 -18,-18 0,-9.94 8.06,-18 18,-18 9.94,0 18,8.06 18,18 m 54,0 c 0,9.94 -8.06,18 -18,18 -9.94,0 -18,-8.06 -18,-18 0,-9.94 8.06,-18 18,-18 9.94,0 18,8.06 18,18 m 54,0 c 0,9.94 -8.06,18 -18,18 -9.94,0 -18,-8.06 -18,-18 0,-9.94 8.06,-18 18,-18 9.94,0 18,8.06 18,18 m 54,0 c 0,9.94 -8.06,18 -18,18 -9.94,0 -18,-8.06 -18,-18 0,-9.94 8.06,-18 18,-18 9.94,0 18,8.06 18,18 m 54,0 c 0,9.94 -8.06,18 -18,18 -9.94,0 -18,-8.06 -18,-18 0,-9.94 8.06,-18 18,-18 9.94,0 18,8.06 18,18 m 54,0 c 0,9.94 -8.06,18 -18,18 -9.94,0 -18,-8.06 -18,-18 0,-9.94 8.06,-18 18,-18 9.94,0 18,8.06 18,18 m -539.999998,54 c 0,9.94 -8.06,18 -18,18 -9.94,0 -17.9999999,-8.06 -17.9999999,-18 0,-9.94 8.0599999,-18 17.9999999,-18 9.94,0 18,8.06 18,18 m 53.999998,0 c 0,9.94 -8.059995,18 -18.000001,18 -9.939997,0 -17.999997,-8.06 -17.999997,-18 0,-9.94 8.06,-18 17.999997,-18 9.940006,0 18.000001,8.06 18.000001,18 m 54,0 c 0,9.94 -8.06,18 -18,18 -9.94,0 -18,-8.06 -18,-18 0,-9.94 8.06,-18 18,-18 9.94,0 18,8.06 18,18 m 54,0 c 0,9.94 -8.06,18 -18,18 -9.94,0 -18,-8.06 -18,-18 0,-9.94 8.06,-18 18,-18 9.94,0 18,8.06 18,18 m 54,0 c 0,9.94 -8.06,18 -18,18 -9.94,0 -18,-8.06 -18,-18 0,-9.94 8.06,-18 18,-18 9.94,0 18,8.06 18,18 m 54,0 c 0,9.94 -8.06,18 -18,18 -9.94,0 -18,-8.06 -18,-18 0,-9.94 8.06,-18 18,-18 9.94,0 18,8.06 18,18 m 54,0 c 0,9.94 -8.06,18 -18,18 -9.94,0 -18,-8.06 -18,-18 0,-9.94 8.06,-18 18,-18 9.94,0 18,8.06 18,18 m 54,0 c 0,9.94 -8.06,18 -18,18 -9.94,0 -18,-8.06 -18,-18 0,-9.94 8.06,-18 18,-18 9.94,0 18,8.06 18,18 m 54,0 c 0,9.94 -8.06,18 -18,18 -9.94,0 -18,-8.06 -18,-18 0,-9.94 8.06,-18 18,-18 9.94,0 18,8.06 18,18 m 54,0 c 0,9.94 -8.06,18 -18,18 -9.94,0 -18,-8.06 -18,-18 0,-9.94 8.06,-18 18,-18 9.94,0 18,8.06 18,18 m 54,0 c 0,9.94 -8.06,18 -18,18 -9.94,0 -18,-8.06 -18,-18 0,-9.94 8.06,-18 18,-18 9.94,0 18,8.06 18,18 m -539.999998,54 c 0,9.94 -8.06,18 -18,18 -9.94,0 -17.9999999,-8.06 -17.9999999,-18 0,-9.94 8.0599999,-18 17.9999999,-18 9.94,0 18,8.06 18,18 m 53.999998,0 c 0,9.94 -8.059995,18 -18.000001,18 -9.939997,0 -17.999997,-8.06 -17.999997,-18 0,-9.94 8.06,-18 17.999997,-18 9.940006,0 18.000001,8.06 18.000001,18 m 54,0 c 0,9.94 -8.06,18 -18,18 -9.94,0 -18,-8.06 -18,-18 0,-9.94 8.06,-18 18,-18 9.94,0 18,8.06 18,18 m 54,0 c 0,9.94 -8.06,18 -18,18 -9.94,0 -18,-8.06 -18,-18 0,-9.94 8.06,-18 18,-18 9.94,0 18,8.06 18,18 m 54,0 c 0,9.94 -8.06,18 -18,18 -9.94,0 -18,-8.06 -18,-18 0,-9.94 8.06,-18 18,-18 9.94,0 18,8.06 18,18 m 54,0 c 0,9.94 -8.06,18 -18,18 -9.94,0 -18,-8.06 -18,-18 0,-9.94 8.06,-18 18,-18 9.94,0 18,8.06 18,18 m 54,0 c 0,9.94 -8.06,18 -18,18 -9.94,0 -18,-8.06 -18,-18 0,-9.94 8.06,-18 18,-18 9.94,0 18,8.06 18,18 m 54,0 c 0,9.94 -8.06,18 -18,18 -9.94,0 -18,-8.06 -18,-18 0,-9.94 8.06,-18 18,-18 9.94,0 18,8.06 18,18 m 54,0 c 0,9.94 -8.06,18 -18,18 -9.94,0 -18,-8.06 -18,-18 0,-9.94 8.06,-18 18,-18 9.94,0 18,8.06 18,18 m 54,0 c 0,9.94 -8.06,18 -18,18 -9.94,0 -18,-8.06 -18,-18 0,-9.94 8.06,-18 18,-18 9.94,0 18,8.06 18,18 m 54,0 c 0,9.94 -8.06,18 -18,18 -9.94,0 -18,-8.06 -18,-18 0,-9.94 8.06,-18 18,-18 9.94,0 18,8.06 18,18 m -539.999998,54 c 0,9.94 -8.06,18 -18,18 -9.94,0 -17.9999999,-8.06 -17.9999999,-18 0,-9.94 8.0599999,-18 17.9999999,-18 9.94,0 18,8.06 18,18 m 53.999998,0 c 0,9.94 -8.059995,18 -18.000001,18 -9.939997,0 -17.999997,-8.06 -17.999997,-18 0,-9.94 8.06,-18 17.999997,-18 9.940006,0 18.000001,8.06 18.000001,18 m 54,0 c 0,9.94 -8.06,18 -18,18 -9.94,0 -18,-8.06 -18,-18 0,-9.94 8.06,-18 18,-18 9.94,0 18,8.06 18,18 m 54,0 c 0,9.94 -8.06,18 -18,18 -9.94,0 -18,-8.06 -18,-18 0,-9.94 8.06,-18 18,-18 9.94,0 18,8.06 18,18 m 54,0 c 0,9.94 -8.06,18 -18,18 -9.94,0 -18,-8.06 -18,-18 0,-9.94 8.06,-18 18,-18 9.94,0 18,8.06 18,18 m 54,0 c 0,9.94 -8.06,18 -18,18 -9.94,0 -18,-8.06 -18,-18 0,-9.94 8.06,-18 18,-18 9.94,0 18,8.06 18,18 m 54,0 c 0,9.94 -8.06,18 -18,18 -9.94,0 -18,-8.06 -18,-18 0,-9.94 8.06,-18 18,-18 9.94,0 18,8.06 18,18 m 54,0 c 0,9.94 -8.06,18 -18,18 -9.94,0 -18,-8.06 -18,-18 0,-9.94 8.06,-18 18,-18 9.94,0 18,8.06 18,18 m 54,0 c 0,9.94 -8.06,18 -18,18 -9.94,0 -18,-8.06 -18,-18 0,-9.94 8.06,-18 18,-18 9.94,0 18,8.06 18,18 m 54,0 c 0,9.94 -8.06,18 -18,18 -9.94,0 -18,-8.06 -18,-18 0,-9.94 8.06,-18 18,-18 9.94,0 18,8.06 18,18 m 54,0 c 0,9.94 -8.06,18 -18,18 -9.94,0 -18,-8.06 -18,-18 0,-9.94 8.06,-18 18,-18 9.94,0 18,8.06 18,18 m -539.999998,54 c 0,9.94 -8.06,18 -18,18 -9.94,0 -17.9999999,-8.06 -17.9999999,-18 0,-9.94 8.0599999,-18 17.9999999,-18 9.94,0 18,8.06 18,18 m 53.999998,0 c 0,9.94 -8.059995,18 -18.000001,18 -9.939997,0 -17.999997,-8.06 -17.999997,-18 0,-9.94 8.06,-18 17.999997,-18 9.940006,0 18.000001,8.06 18.000001,18 m 54,0 c 0,9.94 -8.06,18 -18,18 -9.94,0 -18,-8.06 -18,-18 0,-9.94 8.06,-18 18,-18 9.94,0 18,8.06 18,18 m 54,0 c 0,9.94 -8.06,18 -18,18 -9.94,0 -18,-8.06 -18,-18 0,-9.94 8.06,-18 18,-18 9.94,0 18,8.06 18,18 m 54,0 c 0,9.94 -8.06,18 -18,18 -9.94,0 -18,-8.06 -18,-18 0,-9.94 8.06,-18 18,-18 9.94,0 18,8.06 18,18 m 54,0 c 0,9.94 -8.06,18 -18,18 -9.94,0 -18,-8.06 -18,-18 0,-9.94 8.06,-18 18,-18 9.94,0 18,8.06 18,18 m 54,0 c 0,9.94 -8.06,18 -18,18 -9.94,0 -18,-8.06 -18,-18 0,-9.94 8.06,-18 18,-18 9.94,0 18,8.06 18,18 m 54,0 c 0,9.94 -8.06,18 -18,18 -9.94,0 -18,-8.06 -18,-18 0,-9.94 8.06,-18 18,-18 9.94,0 18,8.06 18,18 m 54,0 c 0,9.94 -8.06,18 -18,18 -9.94,0 -18,-8.06 -18,-18 0,-9.94 8.06,-18 18,-18 9.94,0 18,8.06 18,18 m 54,0 c 0,9.94 -8.06,18 -18,18 -9.94,0 -18,-8.06 -18,-18 0,-9.94 8.06,-18 18,-18 9.94,0 18,8.06 18,18 m 54,0 c 0,9.94 -8.06,18 -18,18 -9.94,0 -18,-8.06 -18,-18 0,-9.94 8.06,-18 18,-18 9.94,0 18,8.06 18,18 m -539.999998,54 c 0,9.94 -8.06,18 -18,18 -9.94,0 -17.9999999,-8.06 -17.9999999,-18 0,-9.94 8.0599999,-18 17.9999999,-18 9.94,0 18,8.06 18,18 m 53.999998,0 c 0,9.94 -8.059995,18 -18.000001,18 -9.939997,0 -17.999997,-8.06 -17.999997,-18 0,-9.94 8.06,-18 17.999997,-18 9.940006,0 18.000001,8.06 18.000001,18 m 54,0 c 0,9.94 -8.06,18 -18,18 -9.94,0 -18,-8.06 -18,-18 0,-9.94 8.06,-18 18,-18 9.94,0 18,8.06 18,18 m 54,0 c 0,9.94 -8.06,18 -18,18 -9.94,0 -18,-8.06 -18,-18 0,-9.94 8.06,-18 18,-18 9.94,0 18,8.06 18,18 m 54,0 c 0,9.94 -8.06,18 -18,18 -9.94,0 -18,-8.06 -18,-18 0,-9.94 8.06,-18 18,-18 9.94,0 18,8.06 18,18 m 54,0 c 0,9.94 -8.06,18 -18,18 -9.94,0 -18,-8.06 -18,-18 0,-9.94 8.06,-18 18,-18 9.94,0 18,8.06 18,18 m 54,0 c 0,9.94 -8.06,18 -18,18 -9.94,0 -18,-8.06 -18,-18 0,-9.94 8.06,-18 18,-18 9.94,0 18,8.06 18,18 m 54,0 c 0,9.94 -8.06,18 -18,18 -9.94,0 -18,-8.06 -18,-18 0,-9.94 8.06,-18 18,-18 9.94,0 18,8.06 18,18 m 54,0 c 0,9.94 -8.06,18 -18,18 -9.94,0 -18,-8.06 -18,-18 0,-9.94 8.06,-18 18,-18 9.94,0 18,8.06 18,18 m 54,0 c 0,9.94 -8.06,18 -18,18 -9.94,0 -18,-8.06 -18,-18 0,-9.94 8.06,-18 18,-18 9.94,0 18,8.06 18,18 m 54,0 c 0,9.94 -8.06,18 -18,18 -9.94,0 -18,-8.06 -18,-18 0,-9.94 8.06,-18 18,-18 9.94,0 18,8.06 18,18 m -539.999998,54 c 0,9.94 -8.06,18 -18,18 -9.94,0 -17.9999999,-8.06 -17.9999999,-18 0,-9.94 8.0599999,-18 17.9999999,-18 9.94,0 18,8.06 18,18 m 53.999998,0 c 0,9.94 -8.059995,18 -18.000001,18 -9.939997,0 -17.999997,-8.06 -17.999997,-18 0,-9.94 8.06,-18 17.999997,-18 9.940006,0 18.000001,8.06 18.000001,18 m 54,0 c 0,9.94 -8.06,18 -18,18 -9.94,0 -18,-8.06 -18,-18 0,-9.94 8.06,-18 18,-18 9.94,0 18,8.06 18,18 m 54,0 c 0,9.94 -8.06,18 -18,18 -9.94,0 -18,-8.06 -18,-18 0,-9.94 8.06,-18 18,-18 9.94,0 18,8.06 18,18 m 54,0 c 0,9.94 -8.06,18 -18,18 -9.94,0 -18,-8.06 -18,-18 0,-9.94 8.06,-18 18,-18 9.94,0 18,8.06 18,18 m 54,0 c 0,9.94 -8.06,18 -18,18 -9.94,0 -18,-8.06 -18,-18 0,-9.94 8.06,-18 18,-18 9.94,0 18,8.06 18,18 m 54,0 c 0,9.94 -8.06,18 -18,18 -9.94,0 -18,-8.06 -18,-18 0,-9.94 8.06,-18 18,-18 9.94,0 18,8.06 18,18 m 54,0 c 0,9.94 -8.06,18 -18,18 -9.94,0 -18,-8.06 -18,-18 0,-9.94 8.06,-18 18,-18 9.94,0 18,8.06 18,18 m 54,0 c 0,9.94 -8.06,18 -18,18 -9.94,0 -18,-8.06 -18,-18 0,-9.94 8.06,-18 18,-18 9.94,0 18,8.06 18,18 m 54,0 c 0,9.94 -8.06,18 -18,18 -9.94,0 -18,-8.06 -18,-18 0,-9.94 8.06,-18 18,-18 9.94,0 18,8.06 18,18 m 54,0 c 0,9.94 -8.06,18 -18,18 -9.94,0 -18,-8.06 -18,-18 0,-9.94 8.06,-18 18,-18 9.94,0 18,8.06 18,18 m -539.999998,54 c 0,9.94 -8.06,18 -18,18 -9.94,0 -17.9999999,-8.06 -17.9999999,-18 0,-9.94 8.0599999,-18 17.9999999,-18 9.94,0 18,8.06 18,18 m 53.999998,0 c 0,9.94 -8.059995,18 -18.000001,18 -9.939997,0 -17.999997,-8.06 -17.999997,-18 0,-9.94 8.06,-18 17.999997,-18 9.940006,0 18.000001,8.06 18.000001,18 m 54,0 c 0,9.94 -8.06,18 -18,18 -9.94,0 -18,-8.06 -18,-18 0,-9.94 8.06,-18 18,-18 9.94,0 18,8.06 18,18 m 54,0 c 0,9.94 -8.06,18 -18,18 -9.94,0 -18,-8.06 -18,-18 0,-9.94 8.06,-18 18,-18 9.94,0 18,8.06 18,18 m 54,0 c 0,9.94 -8.06,18 -18,18 -9.94,0 -18,-8.06 -18,-18 0,-9.94 8.06,-18 18,-18 9.94,0 18,8.06 18,18 m 54,0 c 0,9.94 -8.06,18 -18,18 -9.94,0 -18,-8.06 -18,-18 0,-9.94 8.06,-18 18,-18 9.94,0 18,8.06 18,18 m 54,0 c 0,9.94 -8.06,18 -18,18 -9.94,0 -18,-8.06 -18,-18 0,-9.94 8.06,-18 18,-18 9.94,0 18,8.06 18,18 m 54,0 c 0,9.94 -8.06,18 -18,18 -9.94,0 -18,-8.06 -18,-18 0,-9.94 8.06,-18 18,-18 9.94,0 18,8.06 18,18 m 54,0 c 0,9.94 -8.06,18 -18,18 -9.94,0 -18,-8.06 -18,-18 0,-9.94 8.06,-18 18,-18 9.94,0 18,8.06 18,18 m 54,0 c 0,9.94 -8.06,18 -18,18 -9.94,0 -18,-8.06 -18,-18 0,-9.94 8.06,-18 18,-18 9.94,0 18,8.06 18,18 m 54,0 c 0,9.94 -8.06,18 -18,18 -9.94,0 -18,-8.06 -18,-18 0,-9.94 8.06,-18 18,-18 9.94,0 18,8.06 18,18 m -539.999998,54 c 0,9.94 -8.06,18 -18,18 -9.94,0 -17.9999999,-8.06 -17.9999999,-18 0,-9.94 8.0599999,-18 17.9999999,-18 9.94,0 18,8.06 18,18 m 53.999998,0 c 0,9.94 -8.059995,18 -18.000001,18 -9.939997,0 -17.999997,-8.06 -17.999997,-18 0,-9.94 8.06,-18 17.999997,-18 9.940006,0 18.000001,8.06 18.000001,18 m 54,0 c 0,9.94 -8.06,18 -18,18 -9.94,0 -18,-8.06 -18,-18 0,-9.94 8.06,-18 18,-18 9.94,0 18,8.06 18,18 m 54,0 c 0,9.94 -8.06,18 -18,18 -9.94,0 -18,-8.06 -18,-18 0,-9.94 8.06,-18 18,-18 9.94,0 18,8.06 18,18 m 54,0 c 0,9.94 -8.06,18 -18,18 -9.94,0 -18,-8.06 -18,-18 0,-9.94 8.06,-18 18,-18 9.94,0 18,8.06 18,18 m 54,0 c 0,9.94 -8.06,18 -18,18 -9.94,0 -18,-8.06 -18,-18 0,-9.94 8.06,-18 18,-18 9.94,0 18,8.06 18,18 m 54,0 c 0,9.94 -8.06,18 -18,18 -9.94,0 -18,-8.06 -18,-18 0,-9.94 8.06,-18 18,-18 9.94,0 18,8.06 18,18 m 54,0 c 0,9.94 -8.06,18 -18,18 -9.94,0 -18,-8.06 -18,-18 0,-9.94 8.06,-18 18,-18 9.94,0 18,8.06 18,18 m 54,0 c 0,9.94 -8.06,18 -18,18 -9.94,0 -18,-8.06 -18,-18 0,-9.94 8.06,-18 18,-18 9.94,0 18,8.06 18,18 m 54,0 c 0,9.94 -8.06,18 -18,18 -9.94,0 -18,-8.06 -18,-18 0,-9.94 8.06,-18 18,-18 9.94,0 18,8.06 18,18 m 54,0 c 0,9.94 -8.06,18 -18,18 -9.94,0 -18,-8.06 -18,-18 0,-9.94 8.06,-18 18,-18 9.94,0 18,8.06 18,18 m -539.999998,54 c 0,9.94 -8.06,18 -18,18 -9.94,0 -17.9999999,-8.06 -17.9999999,-18 0,-9.94 8.0599999,-18 17.9999999,-18 9.94,0 18,8.06 18,18 m 53.999998,0 c 0,9.94 -8.059995,18 -18.000001,18 -9.939997,0 -17.999997,-8.06 -17.999997,-18 0,-9.94 8.06,-18 17.999997,-18 9.940006,0 18.000001,8.06 18.000001,18 m 54,0 c 0,9.94 -8.06,18 -18,18 -9.94,0 -18,-8.06 -18,-18 0,-9.94 8.06,-18 18,-18 9.94,0 18,8.06 18,18 m 54,0 c 0,9.94 -8.06,18 -18,18 -9.94,0 -18,-8.06 -18,-18 0,-9.94 8.06,-18 18,-18 9.94,0 18,8.06 18,18 m 54,0 c 0,9.94 -8.06,18 -18,18 -9.94,0 -18,-8.06 -18,-18 0,-9.94 8.06,-18 18,-18 9.94,0 18,8.06 18,18 m 54,0 c 0,9.94 -8.06,18 -18,18 -9.94,0 -18,-8.06 -18,-18 0,-9.94 8.06,-18 18,-18 9.94,0 18,8.06 18,18 m 54,0 c 0,9.94 -8.06,18 -18,18 -9.94,0 -18,-8.06 -18,-18 0,-9.94 8.06,-18 18,-18 9.94,0 18,8.06 18,18 m 54,0 c 0,9.94 -8.06,18 -18,18 -9.94,0 -18,-8.06 -18,-18 0,-9.94 8.06,-18 18,-18 9.94,0 18,8.06 18,18 m 54,0 c 0,9.94 -8.06,18 -18,18 -9.94,0 -18,-8.06 -18,-18 0,-9.94 8.06,-18 18,-18 9.94,0 18,8.06 18,18 m 54,0 c 0,9.94 -8.06,18 -18,18 -9.94,0 -18,-8.06 -18,-18 0,-9.94 8.06,-18 18,-18 9.94,0 18,8.06 18,18 m 54,0 c 0,9.94 -8.06,18 -18,18 -9.94,0 -18,-8.06 -18,-18 0,-9.94 8.06,-18 18,-18 9.94,0 18,8.06 18,18 m -539.999998,54 c 0,9.94 -8.06,18 -18,18 -9.94,0 -17.9999999,-8.06 -17.9999999,-18 0,-9.94 8.0599999,-18 17.9999999,-18 9.94,0 18,8.06 18,18 m 53.999998,0 c 0,9.94 -8.059995,18 -18.000001,18 -9.939997,0 -17.999997,-8.06 -17.999997,-18 0,-9.94 8.06,-18 17.999997,-18 9.940006,0 18.000001,8.06 18.000001,18 m 54,0 c 0,9.94 -8.06,18 -18,18 -9.94,0 -18,-8.06 -18,-18 0,-9.94 8.06,-18 18,-18 9.94,0 18,8.06 18,18 m 54,0 c 0,9.94 -8.06,18 -18,18 -9.94,0 -18,-8.06 -18,-18 0,-9.94 8.06,-18 18,-18 9.94,0 18,8.06 18,18 m 54,0 c 0,9.94 -8.06,18 -18,18 -9.94,0 -18,-8.06 -18,-18 0,-9.94 8.06,-18 18,-18 9.94,0 18,8.06 18,18 m 54,0 c 0,9.94 -8.06,18 -18,18 -9.94,0 -18,-8.06 -18,-18 0,-9.94 8.06,-18 18,-18 9.94,0 18,8.06 18,18 m 54,0 c 0,9.94 -8.06,18 -18,18 -9.94,0 -18,-8.06 -18,-18 0,-9.94 8.06,-18 18,-18 9.94,0 18,8.06 18,18 m 54,0 c 0,9.94 -8.06,18 -18,18 -9.94,0 -18,-8.06 -18,-18 0,-9.94 8.06,-18 18,-18 9.94,0 18,8.06 18,18 m 54,0 c 0,9.94 -8.06,18 -18,18 -9.94,0 -18,-8.06 -18,-18 0,-9.94 8.06,-18 18,-18 9.94,0 18,8.06 18,18 m 54,0 c 0,9.94 -8.06,18 -18,18 -9.94,0 -18,-8.06 -18,-18 0,-9.94 8.06,-18 18,-18 9.94,0 18,8.06 18,18 m 54,0 c 0,9.94 -8.06,18 -18,18 -9.94,0 -18,-8.06 -18,-18 0,-9.94 8.06,-18 18,-18 9.94,0 18,8.06 18,18 m -539.999998,54 c 0,9.93998 -8.06,18 -18,18 -9.94,0 -17.9999999,-8.06002 -17.9999999,-18 0,-9.93997 8.0599999,-18 17.9999999,-18 9.94,0 18,8.06003 18,18 m 53.999998,0 c 0,9.93998 -8.059995,18 -18.000001,18 -9.939997,0 -17.999997,-8.06002 -17.999997,-18 0,-9.93997 8.06,-18 17.999997,-18 9.940006,0 18.000001,8.06003 18.000001,18 m 54,0 c 0,9.93998 -8.06,18 -18,18 -9.94,0 -18,-8.06002 -18,-18 0,-9.93997 8.06,-18 18,-18 9.94,0 18,8.06003 18,18 m 54,0 c 0,9.93998 -8.06,18 -18,18 -9.94,0 -18,-8.06002 -18,-18 0,-9.93997 8.06,-18 18,-18 9.94,0 18,8.06003 18,18 m 54,0 c 0,9.93998 -8.06,18 -18,18 -9.94,0 -18,-8.06002 -18,-18 0,-9.93997 8.06,-18 18,-18 9.94,0 18,8.06003 18,18 m 54,0 c 0,9.93998 -8.06,18 -18,18 -9.94,0 -18,-8.06002 -18,-18 0,-9.93997 8.06,-18 18,-18 9.94,0 18,8.06003 18,18 m 54,0 c 0,9.93998 -8.06,18 -18,18 -9.94,0 -18,-8.06002 -18,-18 0,-9.93997 8.06,-18 18,-18 9.94,0 18,8.06003 18,18 m 54,0 c 0,9.93998 -8.06,18 -18,18 -9.94,0 -18,-8.06002 -18,-18 0,-9.93997 8.06,-18 18,-18 9.94,0 18,8.06003 18,18 m 54,0 c 0,9.93998 -8.06,18 -18,18 -9.94,0 -18,-8.06002 -18,-18 0,-9.93997 8.06,-18 18,-18 9.94,0 18,8.06003 18,18 m 54,0 c 0,9.93998 -8.06,18 -18,18 -9.94,0 -18,-8.06002 -18,-18 0,-9.93997 8.06,-18 18,-18 9.94,0 18,8.06003 18,18 m 54,0 c 0,9.93998 -8.06,18 -18,18 -9.94,0 -18,-8.06002 -18,-18 0,-9.93997 8.06,-18 18,-18 9.94,0 18,8.06003 18,18"
         style="fill:none;stroke:#000000;stroke-width:0.99999994;stroke-linecap:butt;stroke-linejoin:miter;stroke-miterlimit:10;stroke-dasharray:none;stroke-opacity:1"
         id="path867"
         inkscape:connector-curvature="0" /></clipPath></defs><sodipodi:namedview
     pagecolor="#ffffff"
     bordercolor="#666666"
     borderopacity="1"
     objecttolerance="10"
     gridtolerance="10"
     guidetolerance="10"
     inkscape:pageopacity="0"
     inkscape:pageshadow="2"
     inkscape:window-width="1326"
     inkscape:window-height="718"
     id="namedview4"
     showgrid="false"
     inkscape:pagecheckerboard="true"
     inkscape:zoom="4.6695997"
     inkscape:cx="81.593798"
     inkscape:cy="24.621503"
     inkscape:window-x="40"
     inkscape:window-y="25"
     inkscape:window-maximized="1"
     inkscape:current-layer="g10" /><g
     id="g10"
     inkscape:groupmode="layer"
     inkscape:label="ol32"
     transform="matrix(1.3333333,0,0,1.3333333,0,-992.99997)"><circle
       style="display:inline;fill:url(#linearGradient853);fill-opacity:1;fill-rule:evenodd;stroke:#ffffff;stroke-width:3.86025;stroke-miterlimit:4;stroke-dasharray:none;stroke-opacity:1;paint-order:normal"
       id="path845"
       cx="23.236004"
       cy="767.94379"
       r="18.245403"
       clip-path="url(#clipPath865)" /><g
       id="katman_2"
       data-name="katman 2"
       transform="matrix(0.02420163,0,0,0.02502948,10.559895,755.17005)"
       style="display:inline"><g
         id="katman_3"
         data-name="katman 3"><path
           class="cls-1"
           d="m 976.79,296.75 c -3.2,-7 -6.55,-14 -10.32,-21 A 516.37,516.37 0 0 0 909.41,188.82 C 597.16,335.32 225.36,380.9 13.72,395.08 a 509.25,509.25 0 0 0 22.4,305.77 C 310.75,611.34 749.88,454.07 974.78,298.66 Z"
           id="path8"
           inkscape:connector-curvature="0"
           style="fill:#ffffff" /><path
           class="cls-1"
           d="M 275.77,58 A 509.86,509.86 0 0 0 53.92,283.29 C 180.92,244.15 465.8,146.75 637.5,15.63 A 510.59,510.59 0 0 0 275.77,58 Z"
           id="path10"
           inkscape:connector-curvature="0"
           style="fill:#ffffff" /><path
           class="cls-1"
           d="m 963,753.55 a 1533.14,1533.14 0 0 0 -522.19,264.83 v 0 0.56 A 511.75,511.75 0 0 0 963.58,753.81 Z"
           id="path12-3"
           inkscape:connector-curvature="0"
           style="fill:#ffffff" /><path
           class="cls-1"
           d="M 1019.61,448.14 258,955.26 a 4.31,4.31 0 0 0 0,0.88 516.07,516.07 0 0 0 100.72,44.34 h -0.37 C 472.14,898.23 705,717.3 1008.42,629.23 l 2.16,-0.77 A 511.61,511.61 0 0 0 1020,448.4 Z"
           id="path14"
           inkscape:connector-curvature="0"
           style="fill:#ffffff" /><path
           class="cls-1"
           d="M 184.24,899.88 C 642.71,637.53 356,648.31 86,794.23 l -0.47,0.57 a 508.31,508.31 0 0 0 94.42,106.68 30.39,30.39 0 0 1 4.29,-1.6 z"
           id="path16"
           inkscape:connector-curvature="0"
           style="fill:#ffffff" /></g></g></g></svg>