<?xml version="1.0" encoding="UTF-8" standalone="no"?>
<svg
   xmlns:dc="http://purl.org/dc/elements/1.1/"
   xmlns:cc="http://creativecommons.org/ns#"
   xmlns:rdf="http://www.w3.org/1999/02/22-rdf-syntax-ns#"
   xmlns:svg="http://www.w3.org/2000/svg"
   xmlns="http://www.w3.org/2000/svg"
   xmlns:sodipodi="http://sodipodi.sourceforge.net/DTD/sodipodi-0.dtd"
   xmlns:inkscape="http://www.inkscape.org/namespaces/inkscape"
   version="1.1"
   id="svg2"
   width="320"
   height="320"
   viewBox="0 0 320 320"
   sodipodi:docname="share.mercode.white.logo.svg"
   inkscape:version="0.92.4 5da689c313, 2019-01-14">
  <sodipodi:namedview
     pagecolor="#ffffff"
     bordercolor="#666666"
     borderopacity="1"
     objecttolerance="10"
     gridtolerance="10"
     guidetolerance="10"
     inkscape:pageopacity="0"
     inkscape:pageshadow="2"
     inkscape:window-width="1366"
     inkscape:window-height="710"
     id="namedview25"
     showgrid="false"
     inkscape:pagecheckerboard="true"
     inkscape:zoom="1.475"
     inkscape:cx="173.6854"
     inkscape:cy="162.30958"
     inkscape:window-x="0"
     inkscape:window-y="30"
     inkscape:window-maximized="1"
     inkscape:current-layer="svg2" />
  <metadata
     id="metadata8">
    <rdf:RDF>
      <cc:Work
         rdf:about="">
        <dc:format>image/svg+xml</dc:format>
        <dc:type
           rdf:resource="http://purl.org/dc/dcmitype/StillImage" />
        <dc:title></dc:title>
      </cc:Work>
    </rdf:RDF>
  </metadata>
  <defs
     id="defs6" />
  <ellipse
     style="fill:#ffffff;stroke-width:1.13923597"
     id="path18"
     cx="195.59319"
     cy="33.898304"
     rx="27.118643"
     ry="25.423729" />
  <ellipse
     style="fill:#ffffff;stroke-width:0.93480891"
     id="path18-3"
     cx="79.322029"
     cy="58.346878"
     rx="21.694914"
     ry="21.397724" />
  <ellipse
     style="fill:#ffffff;stroke-width:1.06626642"
     id="path18-3-6"
     cx="32.881355"
     cy="159.66103"
     rx="24.745762"
     ry="24.40678" />
  <ellipse
     style="fill:#ffffff;stroke-width:1.06626642"
     id="path18-3-6-5"
     cx="196.27119"
     cy="290.16949"
     rx="24.745762"
     ry="24.40678" />
  <ellipse
     style="fill:#ffffff;stroke-width:1.06626642"
     id="path18-3-6-56"
     cx="286.77966"
     cy="102.03389"
     rx="24.745762"
     ry="24.40678" />
  <ellipse
     style="fill:#000000;stroke-width:1.06626642"
     id="path18-3-6-2"
     cx="166.77966"
     cy="159.32204"
     rx="24.745762"
     ry="24.40678" />
  <path
     style="fill:none;stroke:#ffffff;stroke-width:9.8;stroke-linecap:butt;stroke-linejoin:miter;stroke-opacity:1;stroke-miterlimit:4;stroke-dasharray:none"
     d="M 167.45763,160 194.91525,30.847457 84.745763,55.932203 32.542373,160 82.033898,267.11864 196.61017,290.84746 287.79661,217.28814 286.44068,102.0339 194.57627,31.18644 Z"
     id="path89" />
  <path
     style="fill:none;stroke:#ffffff;stroke-width:6.4;stroke-linecap:butt;stroke-linejoin:miter;stroke-opacity:1;stroke-miterlimit:4;stroke-dasharray:none"
     d="M 284.74576,219.66102 167.45763,160 196.61017,290.84746 82.033898,267.11864 167.45763,160 H 32.542373 167.45763 Z"
     id="path896" />
  <path
     style="fill:#ffffff;stroke:#fbffff;stroke-width:7.67751598;stroke-linecap:butt;stroke-linejoin:miter;stroke-miterlimit:4;stroke-dasharray:none;stroke-opacity:1"
     d="M 44.483387,163.79525 207.88256,297.41548 Z"
     id="path900"
     inkscape:connector-curvature="0" />
  <path
     style="fill:none;stroke:#ffffff;stroke-width:6.4;stroke-linecap:butt;stroke-linejoin:miter;stroke-opacity:1;stroke-miterlimit:4;stroke-dasharray:none"
     d="M 167.45763,160 286.44068,102.0339 Z"
     id="path902" />
  <circle
     r="49.349403"
     cy="159.20428"
     cx="170.49989"
     id="path824"
     style="fill:#ffffff;stroke-width:9.54816246;stroke-miterlimit:4;stroke-dasharray:none" />
  <g
     style="fill:#000000"
     data-name="katman 2"
     id="katman_2"
     transform="matrix(0.40876653,0,0,0.40938635,129.91733,118.34609)">
    <g
       style="fill:#000000"
       data-name="katman 3"
       id="katman_3">
      <path
         style="fill:#000000"
         id="path910"
         d="m 189.32,57.52 c -0.62,-1.36 -1.27,-2.72 -2,-4.07 A 100.1,100.1 0 0 0 176.26,36.59 C 115.74,65 43.68,73.84 2.66,76.59 A 98.81,98.81 0 0 0 7,135.89 c 53.23,-17.36 138.34,-47.86 181.93,-78 z"
         class="cls-1"
         inkscape:connector-curvature="0" />
      <path
         style="fill:#000000"
         id="path912"
         d="m 53.45,11.22 a 98.86,98.86 0 0 0 -43,43.69 C 35.06,47.32 90.28,28.43 123.56,3 a 98.91,98.91 0 0 0 -70.11,8.22 z"
         class="cls-1"
         inkscape:connector-curvature="0" />
      <path
         style="fill:#000000"
         id="path914"
         d="M 186.64,146.11 A 297.08,297.08 0 0 0 85.43,197.47 v 0 c 0,0 0,0.07 0,0.11 a 99.17,99.17 0 0 0 101.33,-51.42 z"
         class="cls-1"
         inkscape:connector-curvature="0" />
      <path
         style="fill:#000000"
         id="path916"
         d="M 197.62,86.88 50,185.23 a 0.91,0.91 0 0 0 0,0.17 100,100 0 0 0 19.52,8.6 v 0 h -0.07 c 22.06,-19.83 67.19,-54.92 126,-72 l 0.42,-0.15 a 99.29,99.29 0 0 0 1.83,-34.92 z"
         class="cls-1"
         inkscape:connector-curvature="0" />
      <path
         style="fill:#000000"
         id="path918"
         d="M 35.71,174.49 C 124.57,123.61 69,125.7 16.66,154 l -0.09,0.11 a 98.54,98.54 0 0 0 18.3,20.69 5.61,5.61 0 0 1 0.84,-0.31 z"
         class="cls-1"
         inkscape:connector-curvature="0" />
    </g>
  </g>
  <path
     style="fill:#ffffff;stroke:#fbffff;stroke-width:7.67751598;stroke-linecap:butt;stroke-linejoin:miter;stroke-miterlimit:4;stroke-dasharray:none;stroke-opacity:1"
     d="M 190.58676,299.72081 282.63359,109.77072 Z"
     id="path900-3"
     inkscape:connector-curvature="0" />
  <path
     style="fill:#ffffff;stroke:#fbffff;stroke-width:7.67751598;stroke-linecap:butt;stroke-linejoin:miter;stroke-miterlimit:4;stroke-dasharray:none;stroke-opacity:1"
     d="M 202.60751,26.048311 39.027467,159.44704 Z"
     id="path900-6"
     inkscape:connector-curvature="0" />
  <path
     style="fill:#ffffff;stroke:#fbffff;stroke-width:7.67751598;stroke-linecap:butt;stroke-linejoin:miter;stroke-miterlimit:4;stroke-dasharray:none;stroke-opacity:1"
     d="M 79.039845,62.809526 286.44068,102.0339 Z"
     id="path900-7"
     inkscape:connector-curvature="0" />
  <ellipse
     style="fill:#ffffff;stroke-width:0.93480891"
     id="path18-3-5"
     cx="83.389824"
     cy="265.76273"
     rx="21.694914"
     ry="21.397724" />
  <ellipse
     style="fill:#ffffff;stroke-width:0.93480891"
     id="path18-3-3"
     cx="285.42374"
     cy="217.62712"
     rx="21.694914"
     ry="21.397724" />
</svg>
