<?xml version="1.0" encoding="UTF-8" standalone="no"?>
<!-- Generator: Adobe Illustrator 19.0.0, SVG Export Plug-In . SVG Version: 6.00 Build 0)  -->

<svg
   xmlns:dc="http://purl.org/dc/elements/1.1/"
   xmlns:cc="http://creativecommons.org/ns#"
   xmlns:rdf="http://www.w3.org/1999/02/22-rdf-syntax-ns#"
   xmlns:svg="http://www.w3.org/2000/svg"
   xmlns="http://www.w3.org/2000/svg"
   xmlns:sodipodi="http://sodipodi.sourceforge.net/DTD/sodipodi-0.dtd"
   xmlns:inkscape="http://www.inkscape.org/namespaces/inkscape"
   version="1.1"
   id="Capa_1"
   x="0px"
   y="0px"
   viewBox="0 0 512 512"
   style="enable-background:new 0 0 512 512;"
   xml:space="preserve"
   sodipodi:docname="bufgix.svg"
   inkscape:version="0.92.4 5da689c313, 2019-01-14"><metadata
   id="metadata111"><rdf:RDF><cc:Work
       rdf:about=""><dc:format>image/svg+xml</dc:format><dc:type
         rdf:resource="http://purl.org/dc/dcmitype/StillImage" /><dc:title></dc:title></cc:Work></rdf:RDF></metadata><defs
   id="defs109" /><sodipodi:namedview
   pagecolor="#ffffff"
   bordercolor="#666666"
   borderopacity="1"
   objecttolerance="10"
   gridtolerance="10"
   guidetolerance="10"
   inkscape:pageopacity="0"
   inkscape:pageshadow="2"
   inkscape:window-width="1366"
   inkscape:window-height="717"
   id="namedview107"
   showgrid="false"
   inkscape:zoom="0.76098204"
   inkscape:cx="209.16478"
   inkscape:cy="268.8798"
   inkscape:window-x="0"
   inkscape:window-y="26"
   inkscape:window-maximized="1"
   inkscape:current-layer="Capa_1" />
<rect
   style="opacity:1;fill:#ff6600;fill-opacity:1;stroke:none;stroke-width:15.60081196;stroke-linecap:square;stroke-linejoin:miter;stroke-miterlimit:4.0999999;stroke-dasharray:none;stroke-dashoffset:0;stroke-opacity:1;paint-order:markers stroke fill"
   id="rect862"
   width="514.64349"
   height="515.70264"
   x="-1.3937532"
   y="-0.33266556"
   rx="0.6951924"
   ry="0.45931703" />






























<g
   id="g76">
</g>
<g
   id="g78">
</g>
<g
   id="g80">
</g>
<g
   id="g82">
</g>
<g
   id="g84">
</g>
<g
   id="g86">
</g>
<g
   id="g88">
</g>
<g
   id="g90">
</g>
<g
   id="g92">
</g>
<g
   id="g94">
</g>
<g
   id="g96">
</g>
<g
   id="g98">
</g>
<g
   id="g100">
</g>
<g
   id="g102">
</g>
<g
   id="g104">
</g>
<path
   inkscape:connector-curvature="0"
   style="fill:#bfbfbf;stroke-width:0.89110881"
   d="m 368.94958,368.90522 -8.06008,-0.53199 v -15.20855 c 0,-12.60028 -10.21211,-22.81239 -22.81238,-22.81239 H 185.99425 c -12.60027,0 -22.81238,10.21211 -22.81238,22.81239 v 15.20855 l -8.06008,0.9125 c -30.07403,4.02246 -52.58255,29.58036 -52.77236,59.92083 v 83.64482 h 319.3734 v -83.64571 c -8.9e-4,-30.48484 -22.56199,-56.26283 -52.77325,-60.30045 z"
   id="path2-6" /><path
   inkscape:connector-curvature="0"
   style="fill:#404040;stroke-width:0.89110881"
   d="m 262.03523,413.998 c -20.58461,0 -40.09633,-9.1704 -53.2286,-25.01788 v 123.87126 h 106.4581 V 388.98012 c -13.13316,15.84659 -32.64488,25.01788 -53.2295,25.01788 z"
   id="path4-7" /><path
   inkscape:connector-curvature="0"
   style="fill:#fedac6;stroke-width:0.89110881"
   d="m 313.43885,362.36538 c -7.68047,-0.92765 -13.43614,-7.47462 -13.38357,-15.20856 v -54.82547 h -76.04099 v 54.90211 c 0.0535,7.73304 -5.70309,14.28091 -13.38356,15.20855 h -1.82499 v 26.38663 c 24.35579,29.39768 67.92744,33.48876 97.32512,9.13297 3.32295,-2.75264 6.37945,-5.80914 9.13298,-9.13297 v -26.23425 z"
   id="path6-5" /><path
   inkscape:connector-curvature="0"
   d="M 216.41046,512.85138 H 201.20191 V 362.44201 c 0,-4.20514 3.40671,-7.60383 7.60383,-7.60383 h 1.293 c 3.64998,-0.62378 6.334,-3.80949 6.31172,-7.55126 v -39.74701 h 15.20856 v 39.69355 c 0.0686,9.86279 -6.20479,18.45486 -15.20856,21.62632 z"
   id="path52-3"
   style="stroke-width:0.89110881" /><path
   inkscape:connector-curvature="0"
   d="M 109.95237,512.85138 H 94.744709 v -83.64571 c 0,-34.14284 25.519571,-63.30437 59.372801,-67.83655 l 8.56266,-0.58546 1.01141,15.17826 -8.06008,0.53199 c -25.83146,3.4673 -45.67824,26.15048 -45.67824,52.71176 v 83.64571 z"
   id="path54-6"
   style="stroke-width:0.89110881" /><path
   inkscape:connector-curvature="0"
   d="M 202.48689,441.04583 161.72847,380.2125 c -4.10623,-6.18251 -6.22796,-13.33722 -6.15934,-20.7361 0,-20.21926 16.50868,-36.72794 36.80367,-36.72794 h 31.6406 v 15.20855 h -31.63347 c -11.90788,0 -21.59601,9.68725 -21.59601,21.59603 -0.0454,4.41009 1.20121,8.61524 3.59651,12.21264 l 40.74327,60.81016 z"
   id="path58-7"
   style="stroke-width:0.89110881" /><path
   inkscape:connector-curvature="0"
   d="m 185.99425,497.64283 c -4.19712,0 -7.60383,-3.39869 -7.60383,-7.60384 v -45.62477 c 0,-4.20514 3.40671,-7.60383 7.60383,-7.60383 4.19712,0 7.60383,3.39869 7.60383,7.60383 v 45.62477 c 0,4.20515 -3.40671,7.60384 -7.60383,7.60384 z"
   id="path60"
   style="stroke-width:0.89110881" /><path
   inkscape:connector-curvature="0"
   d="M 322.86856,512.85138 H 307.66001 V 368.85176 c -9.0109,-3.17057 -15.2843,-11.77155 -15.20856,-21.68692 v -39.62493 h 15.20856 v 39.69355 c -0.0303,3.79434 2.66174,6.98094 6.31172,7.60383 h 1.293 c 4.20514,0 7.60383,3.39869 7.60383,7.60383 z"
   id="path62-5"
   style="stroke-width:0.89110881" /><path
   inkscape:connector-curvature="0"
   d="m 429.32577,512.85138 h -15.20856 v -83.64571 c 0,-26.56128 -19.84677,-49.24446 -46.17993,-52.75721 l -7.55125,-0.47942 1.0114,-15.17825 8.06008,0.53199 c 34.34779,4.5705 59.86737,33.73916 59.86737,67.882 v 83.6466 z"
   id="path64-3"
   style="stroke-width:0.89110881" /><path
   inkscape:connector-curvature="0"
   d="m 321.58358,441.04583 -12.6377,-8.46375 40.75842,-60.83333 c 2.38016,-3.58136 3.62682,-7.77938 3.58137,-12.12086 0,-11.9765 -9.68724,-21.67177 -21.59602,-21.67177 h -31.63347 v -15.20855 h 31.63347 c 20.295,0 36.80368,16.50868 36.80368,36.80368 0.0757,7.31512 -2.05311,14.47785 -6.13617,20.63719 z"
   id="path66-5"
   style="stroke-width:0.89110881" /><path
   inkscape:connector-curvature="0"
   d="m 338.07622,497.64283 c -4.20514,0 -7.60383,-3.39869 -7.60383,-7.60384 v -45.62477 c 0,-4.20514 3.39869,-7.60383 7.60383,-7.60383 4.20515,0 7.60384,3.39869 7.60384,7.60383 v 45.62477 c 8.9e-4,4.20515 -3.39869,7.60384 -7.60384,7.60384 z"
   id="path68-6"
   style="stroke-width:0.89110881" /><path
   style="fill:#fedac6;stroke-width:0.89110881"
   d="m 345.58531,235.78585 h 7.60384 c 12.60027,0 22.81238,-10.2121 22.81238,-22.81238 v 0 c 0,-12.60028 -10.21211,-22.81239 -22.81238,-22.81239 h -7.60384"
   id="path2-2"
   inkscape:connector-curvature="0" /><path
   style="fill:#fedac6;fill-opacity:1;stroke-width:0.89110881"
   d="m 178.2939,235.78585 h -7.60383 c -12.60028,0 -22.81239,-10.2121 -22.81239,-22.81238 v 0 c 0,-12.60028 10.21211,-22.81239 22.81239,-22.81239 h 7.60383"
   id="path4"
   inkscape:connector-curvature="0" /><path
   style="fill:#fedbc7;fill-opacity:1;stroke-width:0.89110881"
   d="m 178.2939,159.74397 v 60.83333 l 1.82499,23.72488 c 3.8781,45.22912 43.69373,78.7562 88.92285,74.87809 2.46391,-0.21297 4.91268,-0.53199 7.34541,-0.96596 37.46578,-7.2465 65.27372,-38.94056 67.60041,-77.03012 l 1.59686,-20.60689 v -60.83333 l -38.02094,-22.81239 z"
   id="path6-9"
   inkscape:connector-curvature="0" /><path
   style="fill:#480c00;stroke-width:0.89110881"
   d="m 307.56437,83.702997 v 0 C 302.911,74.365067 293.3601,68.472157 282.927,68.494437 H 147.87768 c 0,16.7974 13.61882,30.416207 30.41622,30.416207 h -30.41622 c 0,16.797406 13.61882,30.416216 30.41622,30.416216 h -30.41622 c 0,16.79741 13.61882,30.41622 30.41622,30.41622 h 30.41621 c 36.49981,0 75.05275,-13.83981 98.85337,-22.81239 10.35647,10.92678 23.50478,18.8122 38.02094,22.81239 v -38.01916 c 8.9e-4,-20.99541 -17.02463,-38.020923 -38.02005,-38.020923 z"
   id="path10"
   inkscape:connector-curvature="0" /><path
   d="m 248.02405,289.01446 h -1.293 V 273.8059 h 1.293 c 11.83927,-0.008 22.97189,-4.61594 31.35188,-12.98791 l 10.75212,10.76014 c -11.24669,11.23867 -26.19593,17.42831 -42.104,17.43633 z"
   id="path38"
   inkscape:connector-curvature="0"
   style="stroke-width:0.89110881" /><path
   d="m 353.18915,243.38969 h -7.60384 v -15.20856 h 7.60384 c 8.38711,0 15.20855,-6.82055 15.20855,-15.20855 0,-8.38712 -6.82055,-15.20856 -15.20855,-15.20856 h -7.60384 v -15.20855 h 7.60384 c 16.77512,0 30.41621,13.64198 30.41621,30.41622 0,16.77423 -13.64109,30.418 -30.41621,30.418 z"
   id="path40"
   inkscape:connector-curvature="0"
   style="stroke-width:0.89110881" /><path
   d="m 178.2939,244.5014 h -7.60383 c -16.77513,0 -30.41622,-13.64199 -30.41622,-30.41622 0,-16.77423 13.64198,-30.41622 30.41622,-30.41622 h 7.60383 v 15.20766 h -7.60383 c -8.38712,0 -15.20856,6.82055 -15.20856,15.20856 0,8.38712 6.82055,15.20855 15.20856,15.20855 h 7.60383 z"
   id="path42"
   inkscape:connector-curvature="0"
   style="stroke-width:0.89110881" /><path
   d="m 261.86386,327.09599 c -21.10948,0 -41.35102,-7.36056 -57.68504,-21.1166 -18.34882,-15.45183 -29.58748,-37.1236 -31.63347,-61.02314 l -1.83301,-23.79349 -0.0232,-61.41879 h 15.20855 v 60.83333 l 1.80182,23.13942 c 3.50562,40.91794 39.83791,71.42594 80.68723,67.882 2.24292,-0.18981 4.46357,-0.48655 6.67619,-0.87418 33.94501,-6.57014 59.21329,-35.36722 61.327,-70.01085 l 1.60489,-20.72898 -0.0152,-83.05223 h 15.20945 v 83.64482 l -1.62004,21.19235 c -2.52451,41.4428 -32.84984,75.99554 -73.73747,83.90413 -2.77581,0.49457 -5.45983,0.8519 -8.14385,1.08003 -2.62342,0.22812 -5.22368,0.34218 -7.82393,0.34218 z"
   id="path44-1"
   inkscape:connector-curvature="0"
   style="stroke-width:0.89110881" /><path
   d="m 345.58531,167.3487 c -0.67635,0 -1.35359,-0.0909 -2.02281,-0.27357 -14.20428,-3.90841 -27.21536,-11.23867 -37.90688,-21.31444 -29.53402,10.94995 -63.66973,21.58801 -96.94462,21.58801 h -30.41621 c -20.96423,0 -38.02094,-17.05583 -38.02094,-38.02095 0,-4.19712 3.40671,-7.60383 7.60383,-7.60383 h 0.0152 c -4.77545,-6.35717 -7.61898,-14.25774 -7.61898,-22.812376 0,-4.197127 3.40671,-7.603827 7.60383,-7.603827 h 0.0152 c -4.77545,-6.35717 -7.61898,-14.25774 -7.61898,-22.81239 0,-4.19801 3.40671,-7.60472 7.60383,-7.60472 H 282.9271 c 0.0303,0 0.0606,0 0.0909,0 11.81699,0 22.56911,5.80914 29.03232,15.42866 23.05566,2.25807 41.13804,21.76265 41.13804,45.404653 v 38.02094 c 0,2.37214 -1.11032,4.60793 -2.9959,6.04529 -1.33756,1.02566 -2.95759,1.55855 -4.60704,1.55855 z M 156.78253,136.93158 c 3.14027,8.85139 11.596,15.20856 21.51226,15.20856 H 208.711 c 36.97121,0 76.95348,-15.07934 96.16935,-22.32584 2.85155,-1.08715 6.09875,-0.33417 8.19731,1.88559 7.06382,7.44432 15.54272,13.33722 24.8958,17.34543 v -27.3214 c 0,-16.77512 -13.64198,-30.416203 -30.41622,-30.416203 -2.88184,0 -5.52041,-1.62717 -6.80539,-4.21227 -3.38354,-6.79827 -10.44023,-10.9045 -17.80168,-10.99539 H 156.78253 c 3.14027,8.85138 11.596,15.20855 21.51226,15.20855 4.19712,0 7.60382,3.4067 7.60382,7.603827 0,4.197116 -3.4067,7.603826 -7.60382,7.603826 h -21.51226 c 3.14027,8.85138 11.596,15.20855 21.51226,15.20855 4.19712,0 7.60382,3.40671 7.60382,7.60383 0,4.19713 -3.4067,7.60384 -7.60382,7.60384 h -21.51226 z"
   id="path46-2"
   inkscape:connector-curvature="0"
   style="stroke-width:0.89110881" /><g
   transform="matrix(0.84200922,0,0,0.84200922,43.311329,76.085687)"
   id="g40"><path
     style="fill:#ebebeb"
     d="m 213.293,187.739 h -25.6 c -14.14,0 -25.6,-11.46 -25.6,-25.6 v -17.067 c 0,-4.71 3.823,-8.533 8.533,-8.533 h 68.267 v 25.6 c 0,14.14 -11.46,25.6 -25.6,25.6 z"
     id="path36"
     inkscape:connector-curvature="0" /><path
     style="fill:#ebebeb"
     d="m 324.227,187.739 h -25.6 c -14.14,0 -25.6,-11.46 -25.6,-25.6 v -25.6 h 68.267 c 4.71,0 8.533,3.823 8.533,8.533 v 17.067 c 0,14.14 -11.46,25.6 -25.6,25.6 z"
     id="path38-3"
     inkscape:connector-curvature="0" /></g><path
   inkscape:connector-curvature="0"
   d="m 222.906,241.34852 h -21.55544 c -15.85082,0 -28.74029,-12.89033 -28.74029,-28.7403 v -14.37057 c 0,-7.925 6.44474,-14.37058 14.37057,-14.37058 h 57.48143 c 3.96588,0 7.18487,3.219 7.18487,7.18487 v 21.55543 c 0,15.85167 -12.89031,28.74115 -28.74114,28.74115 z m -35.92516,-43.11087 v 14.37057 c 0,7.92499 6.44474,14.37056 14.37057,14.37056 h 21.55543 c 7.92499,0 14.37058,-6.44474 14.37058,-14.37056 v -14.37057 z"
   id="path70"
   style="stroke-width:0.84200925" /><path
   inkscape:connector-curvature="0"
   d="m 316.31345,241.34852 h -21.55543 c -15.85082,0 -28.7403,-12.89033 -28.7403,-28.7403 v -21.55544 c 0,-3.96586 3.21899,-7.18487 7.18486,-7.18487 h 57.48144 c 7.92499,0 14.37058,6.44474 14.37058,14.37057 v 14.37058 c -8.5e-4,15.84998 -12.89117,28.73946 -28.74115,28.73946 z m -35.92601,-43.11087 v 14.37057 c 0,7.92499 6.44474,14.37056 14.37058,14.37056 h 21.55543 c 7.925,0 14.37057,-6.44474 14.37057,-14.37056 v -14.37057 z"
   id="path72"
   style="stroke-width:0.84200925" /><rect
   x="244.46143"
   y="183.86792"
   width="28.740299"
   height="14.370571"
   id="rect74"
   style="stroke-width:0.84200925" /><circle
   cx="215.72107"
   cy="205.42337"
   r="14.370571"
   id="circle76"
   style="stroke-width:0.84200925" /><circle
   cx="301.94287"
   cy="205.42337"
   r="14.370571"
   id="circle78"
   style="stroke-width:0.84200925" /></svg>