<?xml version="1.0" encoding="UTF-8" standalone="no"?>
<!-- Generator: Adobe Illustrator 19.0.0, SVG Export Plug-In . SVG Version: 6.00 Build 0)  -->

<svg
   xmlns:dc="http://purl.org/dc/elements/1.1/"
   xmlns:cc="http://creativecommons.org/ns#"
   xmlns:rdf="http://www.w3.org/1999/02/22-rdf-syntax-ns#"
   xmlns:svg="http://www.w3.org/2000/svg"
   xmlns="http://www.w3.org/2000/svg"
   xmlns:sodipodi="http://sodipodi.sourceforge.net/DTD/sodipodi-0.dtd"
   xmlns:inkscape="http://www.inkscape.org/namespaces/inkscape"
   version="1.1"
   id="Capa_1"
   x="0px"
   y="0px"
   viewBox="0 0 512 512"
   style="enable-background:new 0 0 512 512;"
   xml:space="preserve"
   sodipodi:docname="caner.svg"
   inkscape:version="0.92.4 5da689c313, 2019-01-14"
   inkscape:export-filename="/home/yutyo/Downloads/701987-avatar/caner.png"
   inkscape:export-xdpi="187.5"
   inkscape:export-ydpi="187.5"><metadata
   id="metadata111"><rdf:RDF><cc:Work
       rdf:about=""><dc:format>image/svg+xml</dc:format><dc:type
         rdf:resource="http://purl.org/dc/dcmitype/StillImage" /><dc:title></dc:title></cc:Work></rdf:RDF></metadata><defs
   id="defs109" /><sodipodi:namedview
   pagecolor="#ffffff"
   bordercolor="#666666"
   borderopacity="1"
   objecttolerance="10"
   gridtolerance="10"
   guidetolerance="10"
   inkscape:pageopacity="0"
   inkscape:pageshadow="2"
   inkscape:window-width="1366"
   inkscape:window-height="717"
   id="namedview107"
   showgrid="false"
   inkscape:zoom="0.68837951"
   inkscape:cx="446.43034"
   inkscape:cy="306.04792"
   inkscape:window-x="0"
   inkscape:window-y="26"
   inkscape:window-maximized="1"
   inkscape:current-layer="Capa_1" />
<rect
   style="opacity:1;fill:#ff6600;fill-opacity:1;stroke:none;stroke-width:15.57261848;stroke-linecap:square;stroke-linejoin:miter;stroke-miterlimit:4.0999999;stroke-dasharray:none;stroke-dashoffset:0;stroke-opacity:1;paint-order:markers stroke fill"
   id="rect862"
   width="512.7851"
   height="515.70264"
   x="5.143517e-05"
   y="0.65540117"
   rx="0.69268203"
   ry="0.45931703" />






























<g
   id="g76">
</g>
<g
   id="g78">
</g>
<g
   id="g80">
</g>
<g
   id="g82">
</g>
<g
   id="g84">
</g>
<g
   id="g86">
</g>
<g
   id="g88">
</g>
<g
   id="g90">
</g>
<g
   id="g92">
</g>
<g
   id="g94">
</g>
<g
   id="g96">
</g>
<g
   id="g98">
</g>
<g
   id="g100">
</g>
<g
   id="g102">
</g>
<g
   id="g104">
</g>
<path
   inkscape:connector-curvature="0"
   style="fill:#003399;stroke-width:0.86329901"
   d="m 360.02351,390.88399 -46.55859,-6.18812 v 0 c -24.9148,31.49314 -70.64806,36.81971 -102.13345,11.90489 -4.41232,-3.49203 -8.40593,-7.4848 -11.90488,-11.90489 v 0 l -46.55859,6.18812 c -29.26843,3.91162 -51.12543,28.88512 -51.12543,58.41859 v 66.30136 h 309.40637 v -66.30136 c 8.6e-4,-29.53347 -21.85701,-54.50697 -51.12543,-58.41859 z"
   id="path2-3" /><path
   inkscape:connector-curvature="0"
   style="fill:#fedac6;stroke-width:0.86329901"
   d="m 313.46579,384.69587 v 0 c -7.38121,-0.96517 -12.88474,-7.28539 -12.81826,-14.73393 v -38.52817 h -88.40182 v 38.67581 c 0.0665,7.44767 -5.43706,13.76874 -12.81827,14.73391 v 0 c 24.95885,31.45603 70.6921,36.73079 102.1559,11.77195 4.40456,-3.49982 8.39731,-7.49948 11.88245,-11.91957 z"
   id="path4" /><g
   transform="matrix(0.86329902,0,0,0.86329902,35.445521,73.594849)"
   id="g14"><path
     style="fill:#fedac6"
     d="m 349.862,153.6 h -8.533 v 51.2 h 8.533 c 14.14,0 25.6,-11.46 25.6,-25.6 0,-14.14 -11.46,-25.6 -25.6,-25.6 z"
     id="path8"
     inkscape:connector-curvature="0" /><path
     style="fill:#fedac6"
     d="m 162.129,153.6 c -14.14,0 -25.6,11.46 -25.6,25.6 0,14.14 11.46,25.6 25.6,25.6 h 8.533 v -51.2 z"
     id="path10"
     inkscape:connector-curvature="0" /><path
     style="fill:#fedac6"
     d="M 349.862,136.533 V 230.4 c 0.111,12.544 -4.378,24.687 -12.629,34.133 l -36.864,41.728 c -6.468,7.364 -15.795,11.597 -25.6,11.605 h -37.376 c -9.805,-0.009 -19.132,-4.241 -25.6,-11.605 l -37.035,-41.728 c -8.252,-9.446 -12.74,-21.589 -12.629,-34.133 V 119.467 c 25.899,-4.233 51.541,-9.933 76.8,-17.067 20.386,-7.39 40.329,-15.932 59.733,-25.6 7.808,11.904 16.358,23.305 25.6,34.133 z"
     id="path12-6"
     inkscape:connector-curvature="0" /></g><path
   inkscape:connector-curvature="0"
   style="fill:#140000;stroke-width:0.86329901"
   d="m 315.38059,110.42922 c 0,-13.996658 -10.75584,-29.466977 -58.93484,-29.466977 -88.40182,0 -110.50227,88.401817 -110.50227,88.401817 67.25877,11.19785 125.97259,-15.91232 150.20971,-29.46698 5.59849,12.89165 19.37502,46.18995 41.32785,51.56743 l 4.34671,-43.68551 c 1.73869,-17.30483 -9.54722,-33.24651 -26.44716,-37.34978 z"
   id="path18-0" /><path
   inkscape:connector-curvature="0"
   d="m 337.48104,250.39849 h -7.36653 v -14.73392 h 7.36653 c 8.12537,0 14.73392,-6.6077 14.73392,-14.73394 0,-8.12537 -6.60769,-14.73392 -14.73392,-14.73392 h -7.36653 v -14.73392 h 7.36653 c 16.25161,0 29.46698,13.21625 29.46698,29.46698 0,16.25074 -13.21537,29.46872 -29.46698,29.46872 z"
   id="path24"
   style="stroke-width:0.86329901" /><path
   inkscape:connector-curvature="0"
   d="m 182.77786,257.76502 h -7.36653 c -16.2516,0 -29.46698,-13.21625 -29.46698,-29.46699 0,-16.25074 13.21624,-29.46699 29.46698,-29.46699 h 7.36653 v 14.73393 h -7.36653 c -8.12537,0 -14.73393,6.60769 -14.73393,14.73393 0,8.12623 6.6077,14.73392 14.73393,14.73392 h 7.36653 z"
   id="path26"
   style="stroke-width:0.86329901" /><path
   inkscape:connector-curvature="0"
   d="m 272.66801,353.82862 h -32.28135 c -10.59354,-0.0147 -20.65615,-4.58241 -27.63333,-12.52389 l -31.83242,-36.39927 c -8.31703,-9.53255 -12.83294,-21.7396 -12.72244,-34.38088 V 169.3632 h 14.73392 v 101.22008 c -0.0811,9.09831 3.14587,17.82022 9.08363,24.62733 l 31.81689,36.3777 c 4.17664,4.75936 10.218,7.49947 16.56758,7.50637 h 32.25197 c 6.32798,-0.008 12.37626,-2.74787 16.56758,-7.52192 l 31.83243,-36.03842 c 5.91532,-6.76998 9.14234,-15.49275 9.05341,-24.52373 v -86.91349 h 14.73392 v 86.85478 c 0.11827,12.57482 -4.40541,24.78187 -12.7302,34.31442 l -31.8471,36.0531 c -6.95215,7.92679 -17.02339,12.49452 -27.59449,12.5092 z"
   id="path30"
   style="stroke-width:0.86329901" /><path
   inkscape:connector-curvature="0"
   d="m 337.48104,198.83104 c -0.58186,0 -1.17149,-0.0665 -1.75336,-0.21324 -21.7983,-5.34122 -35.78805,-32.20018 -43.12524,-48.45869 -27.19823,14.02602 -84.01108,37.12876 -147.86671,26.46874 -2.02618,-0.33927 -3.82356,-1.5099 -4.95016,-3.227 -1.12747,-1.71624 -1.48056,-3.83046 -0.98675,-5.82727 0.23482,-0.93582 24.56776,-93.978731 117.6478,-93.978731 48.87135,0 63.31003,15.934773 65.85158,31.301501 17.46713,6.73286 28.76772,24.59797 26.85983,43.61904 l -4.34672,43.67775 c -0.20633,2.12198 -1.3338,4.05146 -3.07938,5.28166 -1.25178,0.89178 -2.74011,1.35624 -4.25089,1.35624 z m -41.32785,-66.30135 c 0.78819,0 1.59107,0.13294 2.3499,0.38331 1.98128,0.66301 3.57319,2.13665 4.40542,4.04454 l 0.56719,1.31135 c 4.15506,9.59903 14.10716,32.56882 27.69894,42.19719 l 3.32285,-33.41571 c 1.37005,-13.57711 -7.59531,-26.24084 -20.85559,-29.46008 -3.3073,-0.80286 -5.62784,-3.76484 -5.62784,-7.1602 0,-18.262226 -28.04513,-22.100454 -51.56744,-22.100454 -67.26654,0 -93.33731,54.197914 -100.85923,74.972334 62.00646,7.38121 116.01963,-18.1146 136.97102,-29.82784 1.1128,-0.62761 2.34991,-0.94444 3.59478,-0.94444 z"
   id="path36"
   style="stroke-width:0.86329901" /><path
   inkscape:connector-curvature="0"
   d="m 254.70017,287.23286 c -0.008,0 -0.0147,0 -0.0225,0 h -20.3324 v -14.73392 h 20.33242 c 0.008,0 0.0147,0 0.0225,0 9.65082,0 19.30078,-2.27652 27.91995,-6.59302 l 6.59302,13.17912 c -10.65915,5.33347 -22.59339,8.14782 -34.51297,8.14782 z"
   id="path38"
   style="stroke-width:0.86329901" /><path
   inkscape:connector-curvature="0"
   d="M 109.10997,515.60394 H 94.376041 v -66.30136 c 0,-33.07731 24.723159,-61.32877 57.519889,-65.71951 l 46.55858,-6.18812 c 3.69837,-0.48605 6.45315,-3.65434 6.4238,-7.36653 v -38.59465 h 14.73393 v 38.52817 c 0.0958,11.07958 -8.1694,20.58278 -19.22741,22.03399 l -46.54389,6.18812 c -25.50359,3.41089 -44.73097,25.38617 -44.73097,51.11853 z"
   id="path40"
   style="stroke-width:0.86329901" /><path
   inkscape:connector-curvature="0"
   d="m 418.51633,515.60394 h -14.73392 v -66.30136 c -0.0665,-25.6443 -19.29388,-47.56778 -44.73875,-50.9709 l -46.5439,-6.18814 C 301.4573,390.70702 293.19121,381.20382 293.28704,370.0431 v -38.60933 h 14.73392 v 38.67581 c -0.0371,3.78642 2.71853,6.94696 6.40914,7.433 l 46.56548,6.18812 c 32.71644,4.37606 57.44651,32.55414 57.52766,65.5572 v 66.31604 z"
   id="path42"
   style="stroke-width:0.86329901" /><rect
   x="153.3109"
   y="456.66913"
   width="14.733924"
   height="58.934834"
   id="rect44"
   style="stroke-width:0.86329901" /><rect
   x="344.84836"
   y="456.66913"
   width="14.733924"
   height="58.934834"
   id="rect46"
   style="stroke-width:0.86329901" /><path
   inkscape:connector-curvature="0"
   d="m 256.52777,419.62149 c -23.65526,0 -47.09642,-10.40189 -62.87579,-30.35101 l 11.55093,-9.13456 c 22.35081,28.25146 63.53881,33.0255 91.79027,10.68937 3.95564,-3.1381 7.55818,-6.73287 10.70404,-10.69628 l 11.53627,9.14925 c -3.83822,4.85434 -8.25054,9.25974 -13.09798,13.09797 -14.68212,11.60964 -32.20795,17.24526 -49.60774,17.24526 z"
   id="path48-6"
   style="stroke-width:0.86329901" /><g
   transform="matrix(0.86329902,0,0,0.86329902,38.499221,79.369482)"
   id="g34"><circle
     style="fill:#ebebeb"
     cx="204.8"
     cy="162.133"
     r="34.132999"
     id="circle30" /><circle
     style="fill:#ebebeb"
     cx="307.20001"
     cy="162.133"
     r="34.132999"
     id="circle32-3" /></g><path
   inkscape:connector-curvature="0"
   d="m 212.76152,256.59667 c -20.30999,0 -36.83439,-16.52354 -36.83439,-36.83437 0,-20.31083 16.52354,-36.83439 36.83439,-36.83439 20.31083,0 36.83437,16.52356 36.83437,36.83439 0,20.31083 -16.52441,36.83437 -36.83437,36.83437 z m 0,-58.93482 c -12.18461,0 -22.10047,9.91585 -22.10047,22.10045 0,12.1846 9.91586,22.10045 22.10047,22.10045 12.18459,0 22.10044,-9.91585 22.10044,-22.10045 0,-12.1846 -9.91585,-22.10045 -22.10044,-22.10045 z"
   id="path57"
   style="stroke-width:0.86329901" /><path
   inkscape:connector-curvature="0"
   d="m 302.85757,256.59667 c -20.30998,0 -36.83439,-16.52354 -36.83439,-36.83437 0,-20.31083 16.52354,-36.83439 36.83439,-36.83439 20.31083,0 36.83437,16.52356 36.83437,36.83439 0,20.31083 -16.5244,36.83437 -36.83437,36.83437 z m 0,-58.93482 c -12.18461,0 -22.10047,9.91585 -22.10047,22.10045 0,12.1846 9.91586,22.10045 22.10047,22.10045 12.1846,0 22.10045,-9.91585 22.10045,-22.10045 0,-12.1846 -9.91585,-22.10045 -22.10045,-22.10045 z"
   id="path59"
   style="stroke-width:0.86329901" /><rect
   x="240.36821"
   y="196.81473"
   width="36.834381"
   height="14.733924"
   id="rect61"
   style="stroke-width:0.86329901" /><circle
   cx="212.25993"
   cy="219.52542"
   r="14.733924"
   id="circle32"
   style="stroke-width:0.86329901" /><circle
   cx="302.51205"
   cy="219.52542"
   r="14.733924"
   id="circle34"
   style="stroke-width:0.86329901" /></svg>