<?xml version="1.0" encoding="UTF-8" standalone="no"?>
<!-- Generator: Adobe Illustrator 19.0.0, SVG Export Plug-In . SVG Version: 6.00 Build 0)  -->

<svg
   xmlns:dc="http://purl.org/dc/elements/1.1/"
   xmlns:cc="http://creativecommons.org/ns#"
   xmlns:rdf="http://www.w3.org/1999/02/22-rdf-syntax-ns#"
   xmlns:svg="http://www.w3.org/2000/svg"
   xmlns="http://www.w3.org/2000/svg"
   xmlns:sodipodi="http://sodipodi.sourceforge.net/DTD/sodipodi-0.dtd"
   xmlns:inkscape="http://www.inkscape.org/namespaces/inkscape"
   version="1.1"
   id="Capa_1"
   x="0px"
   y="0px"
   viewBox="0 0 512 512"
   style="enable-background:new 0 0 512 512;"
   xml:space="preserve"
   sodipodi:docname="bonsharp.svg"
   inkscape:version="0.92.4 5da689c313, 2019-01-14"
   inkscape:export-filename="/home/yutyo/Resimler/701987-avatar/bonsharp.png"
   inkscape:export-xdpi="187.5"
   inkscape:export-ydpi="187.5"><metadata
   id="metadata111"><rdf:RDF><cc:Work
       rdf:about=""><dc:format>image/svg+xml</dc:format><dc:type
         rdf:resource="http://purl.org/dc/dcmitype/StillImage" /><dc:title></dc:title></cc:Work></rdf:RDF></metadata><defs
   id="defs109" /><sodipodi:namedview
   pagecolor="#ffffff"
   bordercolor="#666666"
   borderopacity="1"
   objecttolerance="10"
   gridtolerance="10"
   guidetolerance="10"
   inkscape:pageopacity="0"
   inkscape:pageshadow="2"
   inkscape:window-width="1326"
   inkscape:window-height="718"
   id="namedview107"
   showgrid="false"
   inkscape:zoom="1.8632193"
   inkscape:cx="-17.465922"
   inkscape:cy="326.78133"
   inkscape:window-x="40"
   inkscape:window-y="25"
   inkscape:window-maximized="1"
   inkscape:current-layer="Capa_1" />
<rect
   style="opacity:1;fill:#ff6600;fill-opacity:1;stroke:none;stroke-width:15.60081196;stroke-linecap:square;stroke-linejoin:miter;stroke-miterlimit:4.0999999;stroke-dasharray:none;stroke-dashoffset:0;stroke-opacity:1;paint-order:markers stroke fill"
   id="rect862"
   width="514.64349"
   height="515.70264"
   x="-0.20505682"
   y="-1.5213791"
   rx="0.6951924"
   ry="0.45931703" />






























<g
   id="g76">
</g>
<g
   id="g78">
</g>
<g
   id="g80">
</g>
<g
   id="g82">
</g>
<g
   id="g84">
</g>
<g
   id="g86">
</g>
<g
   id="g88">
</g>
<g
   id="g90">
</g>
<g
   id="g92">
</g>
<g
   id="g94">
</g>
<g
   id="g96">
</g>
<g
   id="g98">
</g>
<g
   id="g100">
</g>
<g
   id="g102">
</g>
<g
   id="g104">
</g>
<path
   inkscape:connector-curvature="0"
   style="fill:#f1c27d;fill-opacity:1;stroke-width:0.91135252"
   d="m 171.21733,124.83138 v 93.32249 l 1.86645,24.26385 c 3.96621,46.25661 44.68635,80.54533 90.94296,76.57912 2.51989,-0.21781 5.02428,-0.54408 7.51228,-0.98791 38.3169,-7.41111 66.75657,-39.82518 69.13611,-78.78003 l 1.63314,-21.07503 v -93.32249 z"
   id="path24" /><path
   inkscape:connector-curvature="0"
   style="fill:#5c3724;stroke-width:0.94097191;fill-opacity:1"
   d="m 357.10971,222.10522 7.52571,-51.40173 v 0 c 0,-56.77281 -40.43756,-102.803464 -90.31202,-102.803464 h -30.10372 c -49.87446,0 -90.31202,46.030654 -90.31202,102.803464 v 8.56662 l 7.52571,42.83511 15.0523,25.70086 7.5257,-68.53597 H 334.5317 l 7.52571,59.96835 z"
   id="path24-3" /><path
   inkscape:connector-curvature="0"
   d="m 152.92325,230.90019 -7.53468,-42.8344 c -0.10508,-0.55718 -0.15099,-1.11335 -0.15099,-1.67957 v -8.56648 c 0,-61.407 43.9436,-111.368263 97.95434,-111.368263 h 30.13961 c 54.01074,0 97.95433,49.961263 97.95433,111.368263 0,0.47085 -0.038,0.94269 -0.10507,1.41353 l -7.53468,51.40088 -14.86626,-2.81801 7.43666,-50.69011 C 355.88539,125.4852 318.82834,83.585451 273.33153,83.585451 h -30.13961 c -45.69989,0 -82.88498,42.277219 -82.88498,94.235299 v 7.71916 l 7.38456,42.00316 z"
   id="path42-5"
   style="stroke-width:0.94152492" /><path
   inkscape:connector-curvature="0"
   d="m 194.67365,191.37542 -10.66228,-12.10531 c 8.28877,-9.4409 12.86185,-21.99095 12.86979,-35.32907 v -1.4567 h 15.07025 v 1.4567 c -0.0149,17.913 -6.14837,34.75482 -17.27776,47.43438 z"
   id="path48-6"
   style="stroke-width:0.94152492" /><path
   inkscape:connector-curvature="0"
   d="m 232.34882,191.37542 -10.66229,-12.10531 c 8.28876,-9.4409 12.86184,-21.99095 12.8698,-35.32907 v -1.4567 h 15.07024 v 1.4567 c -0.0149,17.913 -6.14836,34.75482 -17.27775,47.43438 z"
   id="path50-2"
   style="stroke-width:0.94152492" /><path
   inkscape:connector-curvature="0"
   d="m 270.01603,191.37542 -10.66229,-12.10531 c 8.28876,-9.4409 12.86184,-21.98292 12.8698,-35.32907 v -1.4567 h 15.07024 v 1.4567 c -0.007,17.92103 -6.1413,34.76386 -17.27775,47.43438 z"
   id="path52"
   style="stroke-width:0.94152492" /><path
   inkscape:connector-curvature="0"
   d="m 307.69117,191.37542 -10.65433,-12.10531 c 8.28877,-9.4409 12.85479,-21.98292 12.86185,-35.32907 v -1.4567 h 15.07024 v 1.4567 c -0.008,17.92103 -6.1413,34.76386 -17.27776,47.43438 z"
   id="path54"
   style="stroke-width:0.94152492" /><path
   inkscape:connector-curvature="0"
   style="fill:#f1c27d;fill-opacity:1;stroke-width:0.91135252"
   d="m 256.76326,412.57634 c 28.29202,0.0155 53.87004,-16.84453 65.01497,-42.85089 l 3.4996,-7.77657 -15.94229,-1.86645 c -7.85495,-0.94872 -13.74138,-7.64442 -13.68761,-15.55405 v -40.82859 h -77.76844 v 40.59528 c 0.0547,7.90872 -5.83265,14.60534 -13.6876,15.55406 l -15.55405,1.86645 3.49959,7.77657 c 11.02007,25.96716 36.41947,42.90465 64.62583,43.08419 z"
   id="path2" /><path
   inkscape:connector-curvature="0"
   style="fill:#8c0000;stroke-width:0.91135252"
   d="m 366.10642,366.45917 -40.82859,-4.82197 -3.4996,7.77657 c -15.4374,35.90547 -57.05887,52.50211 -92.96433,37.06471 -16.64221,-7.15503 -29.90239,-20.4225 -37.06471,-37.06471 l -3.49959,-7.77657 -40.82859,4.82197 c -30.89759,4.12933 -53.971211,30.49294 -53.971211,61.67031 V 513.6754 H 420.07853 V 428.12948 C 420.07762,396.95211 397.004,370.5885 366.10642,366.45917 Z"
   id="path4-3" /><rect
   x="93.448883"
   y="474.79074"
   style="fill:#f1c27d;fill-opacity:1;stroke-width:0.91135252"
   width="62.215298"
   height="38.884678"
   id="rect8" /><rect
   x="357.86234"
   y="474.79074"
   style="fill:#f1c27d;fill-opacity:1;stroke-width:0.91135252"
   width="62.215298"
   height="38.884678"
   id="rect16" /><g
   transform="matrix(0.91135249,0,0,0.91135249,23.457019,47.062936)"
   id="g22"
   style="fill:#f1c27d;fill-opacity:1;stroke:none;stroke-opacity:1"><path
     style="fill:#f1c27d;fill-opacity:1;stroke:none;stroke-opacity:1"
     d="m 358.4,145.067 h -8.533 v 51.2 h 8.533 c 14.14,0 25.6,-11.46 25.6,-25.6 0,-14.14 -11.46,-25.6 -25.6,-25.6 z"
     id="path18"
     inkscape:connector-curvature="0" /><path
     style="fill:#f1c27d;fill-opacity:1;stroke:none;stroke-opacity:1"
     d="m 153.6,145.067 c -14.14,0 -25.6,11.46 -25.6,25.6 0,14.14 11.46,25.6 25.6,25.6 h 8.533 v -51.2 z"
     id="path20"
     inkscape:connector-curvature="0" /></g><g
   transform="matrix(0.91135249,0,0,0.91135249,23.457019,47.062936)"
   id="g32"><path
     style="fill:#ebebeb"
     d="m 200.533,204.8 v 0 c -21.163,0.051 -38.349,-17.067 -38.4,-38.229 0,-0.06 0,-0.111 0,-0.171 v -21.333 h 76.8 V 166.4 c 0.051,21.163 -17.067,38.349 -38.229,38.4 -0.06,0 -0.111,0 -0.171,0 z"
     id="path28"
     inkscape:connector-curvature="0" /><path
     style="fill:#ebebeb"
     d="m 311.467,204.8 v 0 c -21.163,0.051 -38.349,-17.067 -38.4,-38.229 0,-0.06 0,-0.111 0,-0.171 v -21.333 h 76.8 V 166.4 c 0.051,21.163 -17.067,38.349 -38.229,38.4 -0.06,0 -0.112,0 -0.171,0 z"
     id="path30"
     inkscape:connector-curvature="0" /></g><path
   inkscape:connector-curvature="0"
   d="m 242.53158,280.36917 h -1.32238 v -15.55405 h 1.32238 c 12.10823,-0.008 23.49375,-4.72081 32.06411,-13.28296 l 10.99638,11.00458 c -11.50218,11.49398 -26.79103,17.82423 -43.06049,17.83243 z"
   id="path40-6"
   style="stroke-width:0.91135252" /><path
   d="m 350.08484,233.70793 h -7.77657 v -15.55406 h 7.77657 c 8.57765,0 15.55405,-6.97549 15.55405,-15.55405 0,-8.57765 -6.97549,-15.55405 -15.55405,-15.55405 h -7.77657 v -15.55406 h 7.77657 c 17.15621,0 31.1072,13.9519 31.1072,31.1072 0,17.1553 -13.95099,31.10902 -31.1072,31.10902 z"
   id="path42-7"
   inkscape:connector-curvature="0"
   style="stroke-width:0.91135252" /><path
   inkscape:connector-curvature="0"
   d="m 171.21733,233.70793 h -7.77657 c -17.15621,0 -31.10719,-13.9519 -31.10719,-31.1072 0,-17.1553 13.95189,-31.10719 31.10719,-31.10719 h 7.77657 v 15.55314 h -7.77657 c -8.57765,0 -15.55405,6.97549 -15.55405,15.55405 0,8.57765 6.97549,15.55405 15.55405,15.55405 h 7.77657 z"
   id="path44"
   style="stroke-width:0.91135252" /><path
   inkscape:connector-curvature="0"
   d="m 206.1358,241.4845 c -11.37003,0 -22.06293,-4.41733 -30.1202,-12.43541 -8.08825,-8.04906 -12.54385,-18.75745 -12.57484,-30.16668 V 179.2692 c 0,-4.29247 3.4841,-7.77657 7.77657,-7.77657 h 69.99187 c 4.29247,0 7.77657,3.4841 7.77657,7.77657 v 19.44279 c 0.0237,11.38553 -4.39363,22.11761 -12.4354,30.19767 -8.04906,8.08825 -18.75746,12.54385 -30.16668,12.57484 h -0.15584 c -0.0301,0 -0.0611,0 -0.092,0 z m -27.14098,-54.43782 v 11.66531 c 0.031,15.07924 12.20209,27.21937 27.14098,27.21937 0.0237,0 0.0547,0 0.0775,0 h 0.15584 c 14.94709,-0.031 27.09451,-12.23309 27.06352,-27.20388 v -11.6808 z"
   id="path48"
   style="stroke-width:0.91135252" /><path
   inkscape:connector-curvature="0"
   d="m 307.23487,241.4845 c -23.49376,0 -42.64036,-19.09193 -42.69504,-42.60209 V 179.2692 c 0,-4.29247 3.4759,-7.77657 7.77657,-7.77657 h 69.99187 c 4.30067,0 7.77657,3.4841 7.77657,7.77657 v 19.44279 c 0.031,11.38553 -4.38634,22.11761 -12.4354,30.19767 -8.04907,8.08825 -18.75746,12.54385 -30.16668,12.57484 h -0.16313 c -0.0219,0 -0.0538,0 -0.0848,0 z m -27.14099,-54.43782 v 11.66531 c 0.0392,15.07924 12.2021,27.21937 27.14099,27.21937 0.031,0 0.0465,0 0.0775,0 h 0.16314 c 7.23249,-0.0155 14.04485,-2.85436 19.1548,-7.9871 5.11725,-5.14094 7.92421,-11.96059 7.90872,-19.20857 v -11.68901 z"
   id="path50"
   style="stroke-width:0.91135252" /><rect
   x="241.2092"
   y="171.49263"
   width="31.107195"
   height="15.554052"
   id="rect52"
   style="stroke-width:0.91135252" /><path
   inkscape:connector-curvature="0"
   d="m 256.76326,327.03041 c -51.45952,0 -93.3225,-41.86297 -93.3225,-93.32248 v -54.43782 h 15.55406 v 54.43782 c 0,42.88186 34.88748,77.76843 77.76844,77.76843 42.88095,0 77.76844,-34.88748 77.76844,-77.76843 v -54.43782 h 15.55405 v 54.43782 c 0,51.45951 -41.86297,93.32248 -93.32249,93.32248 z"
   id="path58"
   style="stroke-width:0.91135252" /><path
   inkscape:connector-curvature="0"
   d="M 101.22546,513.6754 H 85.672319 v -85.54592 c 0,-34.91847 26.099311,-64.74248 60.721591,-69.37762 l 56.88754,-6.70391 c 3.90423,-0.47482 6.85155,-3.81037 6.82056,-7.77657 v -32.79502 h 15.55405 v 32.74034 c 0.0857,11.82115 -8.74078,21.85332 -20.53095,23.27594 l -56.79457,6.68842 c -26.80652,3.58526 -47.10417,26.78373 -47.10417,53.94842 v 85.54592 z"
   id="path62"
   style="stroke-width:0.91135252" /><path
   inkscape:connector-curvature="0"
   d="m 427.85419,513.6754 h -15.55405 v -85.54592 c -0.031,-27.11821 -20.33683,-50.29299 -47.22902,-53.88554 l -56.64694,-6.67292 c -11.82115,-1.43083 -20.6394,-11.463 -20.55464,-23.33883 v -32.75583 h 15.55496 v 32.81871 c -0.031,4.02089 2.90813,7.35735 6.84335,7.83126 l 56.7481,6.68841 c 34.69245,4.63514 60.79177,34.42087 60.83824,69.30745 z"
   id="path64"
   style="stroke-width:0.91135252" /><path
   inkscape:connector-curvature="0"
   d="m 256.80245,420.35291 c -0.031,0 -0.062,0 -0.0857,0 -31.43437,0 -59.7346,-18.6645 -72.11532,-47.56349 l -4.9769,-11.57964 14.29365,-6.13614 4.9769,11.58785 c 9.93101,23.16749 32.62368,38.13736 57.82896,38.13736 0.0237,0 0.0465,0 0.0702,0 25.20528,0 47.90525,-14.97078 57.84446,-38.13736 l 4.97689,-11.58785 14.29366,6.13614 -4.9769,11.58784 c -12.38801,28.89079 -40.70374,47.55529 -72.1299,47.55529 z"
   id="path66"
   style="stroke-width:0.91135252" /><rect
   x="147.88672"
   y="451.46011"
   width="15.554052"
   height="62.215298"
   id="rect68"
   style="stroke-width:0.91135252" /><rect
   x="93.448883"
   y="467.01416"
   width="62.215298"
   height="15.554052"
   id="rect70"
   style="stroke-width:0.91135252" /><rect
   x="350.08578"
   y="451.46011"
   width="15.554052"
   height="62.215298"
   id="rect72"
   style="stroke-width:0.91135252" /><rect
   x="357.86234"
   y="467.01416"
   width="62.215298"
   height="15.554052"
   id="rect74-5"
   style="stroke-width:0.91135252" /></svg>