<?xml version="1.0" encoding="UTF-8" standalone="no"?>
<!-- Generator: Adobe Illustrator 19.0.0, SVG Export Plug-In . SVG Version: 6.00 Build 0)  -->

<svg
   xmlns:dc="http://purl.org/dc/elements/1.1/"
   xmlns:cc="http://creativecommons.org/ns#"
   xmlns:rdf="http://www.w3.org/1999/02/22-rdf-syntax-ns#"
   xmlns:svg="http://www.w3.org/2000/svg"
   xmlns="http://www.w3.org/2000/svg"
   xmlns:sodipodi="http://sodipodi.sourceforge.net/DTD/sodipodi-0.dtd"
   xmlns:inkscape="http://www.inkscape.org/namespaces/inkscape"
   version="1.1"
   id="Capa_1"
   x="0px"
   y="0px"
   viewBox="0 0 512 512"
   style="enable-background:new 0 0 512 512;"
   xml:space="preserve"
   sodipodi:docname="merith.svg"
   inkscape:version="0.92.4 5da689c313, 2019-01-14"><metadata
   id="metadata111"><rdf:RDF><cc:Work
       rdf:about=""><dc:format>image/svg+xml</dc:format><dc:type
         rdf:resource="http://purl.org/dc/dcmitype/StillImage" /><dc:title></dc:title></cc:Work></rdf:RDF></metadata><defs
   id="defs109" /><sodipodi:namedview
   pagecolor="#ffffff"
   bordercolor="#666666"
   borderopacity="1"
   objecttolerance="10"
   gridtolerance="10"
   guidetolerance="10"
   inkscape:pageopacity="0"
   inkscape:pageshadow="2"
   inkscape:window-width="1366"
   inkscape:window-height="717"
   id="namedview107"
   showgrid="false"
   inkscape:zoom="0.68837951"
   inkscape:cx="677.18625"
   inkscape:cy="306.04792"
   inkscape:window-x="0"
   inkscape:window-y="26"
   inkscape:window-maximized="1"
   inkscape:current-layer="Capa_1" />
<rect
   style="opacity:1;fill:#ff6600;fill-opacity:1;stroke:none;stroke-width:15.57261848;stroke-linecap:square;stroke-linejoin:miter;stroke-miterlimit:4.0999999;stroke-dasharray:none;stroke-dashoffset:0;stroke-opacity:1;paint-order:markers stroke fill"
   id="rect862"
   width="512.7851"
   height="515.70264"
   x="5.4063068e-05"
   y="-0.79728812"
   rx="0.69268203"
   ry="0.45931703" />






























<g
   id="g76">
</g>
<g
   id="g78">
</g>
<g
   id="g80">
</g>
<g
   id="g82">
</g>
<g
   id="g84">
</g>
<g
   id="g86">
</g>
<g
   id="g88">
</g>
<g
   id="g90">
</g>
<g
   id="g92">
</g>
<g
   id="g94">
</g>
<g
   id="g96">
</g>
<g
   id="g98">
</g>
<g
   id="g100">
</g>
<g
   id="g102">
</g>
<g
   id="g104">
</g>
<path
   inkscape:connector-curvature="0"
   style="fill:#282828;stroke-width:0.85204244"
   d="m 362.70045,374.1987 -7.70673,-0.50867 v -14.54181 c 0,-12.04788 -9.7644,-21.81228 -21.81228,-21.81228 H 187.76591 c -12.04788,0 -21.81229,9.7644 -21.81229,21.81228 v 14.54181 l -7.70672,0.87249 c -28.75558,3.84612 -50.27732,28.28355 -50.45881,57.2939 v 79.97781 h 305.37203 v -79.97867 c -8.6e-4,-29.14837 -21.57288,-53.79625 -50.45967,-57.65686 z"
   id="path2" /><path
   inkscape:connector-curvature="0"
   style="fill:#ebebeb;stroke-width:0.85204244"
   d="m 260.47325,417.31461 c -19.68218,0 -38.33851,-8.76837 -50.89506,-23.9211 V 511.83423 H 311.36915 V 393.39351 c -12.5574,15.15188 -31.21372,23.9211 -50.8959,23.9211 z"
   id="path4-2" /><path
   inkscape:connector-curvature="0"
   style="fill:#fedac6;stroke-width:0.85204244"
   d="m 309.62332,367.94556 c -7.34376,-0.88697 -12.8471,-7.14693 -12.79683,-14.54181 v -52.42191 h -72.70734 v 52.49519 c 0.0511,7.39402 -5.45307,13.65483 -12.79682,14.54181 h -1.74499 v 25.22983 c 23.28803,28.10888 64.94949,32.02061 93.05838,8.73258 3.17726,-2.63196 6.09977,-5.55446 8.73258,-8.73258 v -25.08413 z"
   id="path6" /><path
   style="fill:#fedac6;stroke-width:0.92662215"
   d="m 180.49458,125.00145 v 85.99261 l 1.74498,26.8298 c 3.70809,51.14833 41.7782,89.06316 85.02446,84.67752 2.3559,-0.24085 4.69732,-0.60161 7.02339,-1.09238 35.82327,-8.19486 62.41211,-44.03679 64.63679,-87.11119 l 1.52686,-23.30375 v -85.99261 z"
   id="path18"
   inkscape:connector-curvature="0" /><circle
   cx="216.84868"
   cy="213.73267"
   r="14.541808"
   id="circle38"
   style="stroke-width:0.85204244" /><path
   inkscape:connector-curvature="0"
   style="fill:#fedac6;fill-opacity:1;stroke-width:0.85204244"
   d="M 187.76591,242.81631 H 173.2241 c -12.04788,0 -21.81229,-9.76441 -21.81229,-21.81229 v 0 c 0,-12.04788 9.76441,-21.81228 21.81229,-21.81228 h 7.27048"
   id="path14" /><path
   inkscape:connector-curvature="0"
   style="fill:#fedac6;stroke-width:0.85204244"
   d="m 333.18059,242.81631 h 14.5418 c 12.04788,0 21.81229,-9.76441 21.81229,-21.81229 v 0 c 0,-12.04788 -9.76441,-21.81228 -21.81229,-21.81228 h -7.27047"
   id="path12" /><circle
   cx="304.09778"
   cy="213.73267"
   r="14.541808"
   id="circle40"
   style="stroke-width:0.85204244" /><path
   d="m 253.07966,287.44623 h -1.23632 v -14.54181 h 1.23632 c 11.32023,-0.008 21.9648,-4.41358 29.97741,-12.41852 l 10.28074,10.28841 c -10.75363,10.74681 -25.04749,16.6651 -40.25815,16.67192 z"
   id="path44"
   inkscape:connector-curvature="0"
   style="stroke-width:0.85204244" /><path
   d="m 352.03692,248.60881 h -7.27048 V 234.067 h 7.27048 c 8.01942,0 14.5418,-6.52153 14.5418,-14.54181 0,-8.01942 -6.52153,-14.5418 -14.5418,-14.5418 h -7.27048 v -14.54181 h 7.27048 c 16.03969,0 29.08276,13.04391 29.08276,29.08276 0,16.03885 -13.04307,29.08447 -29.08276,29.08447 z"
   id="path46"
   inkscape:connector-curvature="0"
   style="stroke-width:0.85204244" /><path
   inkscape:connector-curvature="0"
   d="m 260.55334,330.10891 c -40.89037,0 -77.17204,-29.29407 -84.55158,-70.85329 -0.45073,-2.54505 -0.7924,-5.1114 -1.01053,-7.68542 l -1.75265,-22.73591 -0.0145,-73.26713 h 14.54181 v 72.70734 l 1.72283,22.12499 c 0.17467,2.07983 0.4584,4.20227 0.82903,6.31108 6.87854,38.72448 43.92961,64.61549 82.69754,57.7591 32.46367,-6.28211 56.62504,-33.81671 58.64608,-66.94156 l 1.53453,-19.82022 -0.0145,-72.14073 h 14.54095 v 72.70734 l -1.54901,20.26328 c -2.41384,39.62594 -31.40969,72.66388 -70.50481,80.22576 -5.06709,0.90146 -10.12737,1.34537 -15.11523,1.34537 z"
   id="path50"
   style="stroke-width:0.85204244" /><path
   inkscape:connector-curvature="0"
   d="M 216.84867,511.83423 H 202.30686 V 368.01884 c 0,-4.02079 3.25736,-7.27048 7.27048,-7.27048 h 1.23632 c 3.48996,-0.59643 6.05631,-3.64248 6.03501,-7.22021 v -38.0045 h 14.54181 v 37.95338 c 0.0656,9.43041 -5.93277,17.6458 -14.54181,20.67822 z"
   id="path52"
   style="stroke-width:0.85204244" /><path
   d="m 175.46945,249.4956 h -7.27048 c -16.0397,0 -29.08276,-13.04392 -29.08276,-29.08277 0,-16.03884 13.04392,-29.08276 29.08276,-29.08276 h 7.27048 v 14.54096 h -7.27048 c -8.01942,0 -14.5418,6.52153 -14.5418,14.5418 0,8.01943 6.52153,14.54181 14.5418,14.54181 h 7.27048 z"
   id="path48"
   inkscape:connector-curvature="0"
   style="stroke-width:0.85204244" /><path
   d="M 117.07856,512.93894 H 102.5376 v -79.97867 c 0,-32.64601 24.40079,-60.5291 56.76988,-64.86258 l 8.18728,-0.5598 0.96707,14.51284 -7.70672,0.50867 c -24.69901,3.3153 -43.6757,25.00404 -43.6757,50.40087 v 79.97867 z"
   id="path54"
   inkscape:connector-curvature="0"
   style="stroke-width:0.85204244" /><path
   inkscape:connector-curvature="0"
   d="m 260.47325,424.58509 c -21.92135,0 -42.51181,-9.6775 -56.49383,-26.55306 l 11.19669,-9.27022 c 11.21118,13.52362 27.72376,21.28147 45.29714,21.28147 17.57337,0 34.0851,-7.75785 45.29713,-21.29595 l 11.18987,9.2847 c -13.98201,16.87556 -34.57332,26.55306 -56.487,26.55306 z"
   id="path56-7"
   style="stroke-width:0.85204244" /><path
   inkscape:connector-curvature="0"
   d="m 203.53551,443.17665 -38.97157,-58.16638 c -3.92621,-5.91147 -5.95493,-12.75252 -5.88932,-19.82703 0,-19.33284 15.78494,-35.11778 35.19021,-35.11778 h 30.25347 v 14.54181 h -30.24666 c -11.38584,0 -20.64925,9.26255 -20.64925,20.64925 -0.0435,4.21675 1.14856,8.23754 3.43885,11.67724 l 38.95708,58.14423 z"
   id="path58"
   style="stroke-width:0.85204244" /><path
   inkscape:connector-curvature="0"
   d="m 187.76591,497.29242 c -4.01312,0 -7.27048,-3.24969 -7.27048,-7.27047 v -43.62458 c 0,-4.02079 3.25736,-7.27048 7.27048,-7.27048 4.01312,0 7.27048,3.24969 7.27048,7.27048 v 43.62458 c 0,4.02078 -3.25736,7.27047 -7.27048,7.27047 z"
   id="path60-0"
   style="stroke-width:0.85204244" /><path
   inkscape:connector-curvature="0"
   d="M 318.63963,511.83423 H 304.09782 V 374.14758 c -8.61585,-3.03157 -14.61423,-11.25548 -14.54181,-20.73616 v -37.88777 h 14.54181 v 37.95338 c -0.029,3.628 2.54505,6.6749 6.03502,7.27048 h 1.23631 c 4.02079,0 7.27048,3.24969 7.27048,7.27048 z"
   id="path62"
   style="stroke-width:0.85204244" /><path
   inkscape:connector-curvature="0"
   d="m 420.42974,511.83423 h -14.54182 v -79.97867 c 0,-25.39683 -18.97668,-47.08557 -44.15539,-50.44432 l -7.22021,-0.4584 0.96707,-14.51284 7.70672,0.50867 c 32.84198,4.37013 57.24278,32.26003 57.24278,64.90604 v 79.97952 z"
   id="path64"
   style="stroke-width:0.85204244" /><path
   inkscape:connector-curvature="0"
   d="m 317.41098,443.17665 -12.08366,-8.0927 38.97157,-58.16638 c 2.2758,-3.42436 3.46781,-7.43833 3.42436,-11.58948 0,-11.45145 -9.26256,-20.72167 -20.64925,-20.72167 H 296.82734 V 330.06461 H 327.074 c 19.40526,0 35.1902,15.78494 35.1902,35.1902 0.0724,6.99442 -1.9631,13.84314 -5.86716,19.73245 z"
   id="path66"
   style="stroke-width:0.85204244" /><path
   inkscape:connector-curvature="0"
   d="m 333.18059,497.29242 c -4.02079,0 -7.27048,-3.24969 -7.27048,-7.27047 v -43.62458 c 0,-4.02079 3.24969,-7.27048 7.27048,-7.27048 4.02078,0 7.27047,3.24969 7.27047,7.27048 v 43.62458 c 8.6e-4,4.02078 -3.24969,7.27047 -7.27047,7.27047 z"
   id="path68"
   style="stroke-width:0.85204244" /><path
   inkscape:connector-curvature="0"
   style="fill:#300000;stroke:#000000;stroke-width:23.21294022;stroke-linecap:butt;stroke-miterlimit:4;stroke-dasharray:none;stroke-opacity:1;paint-order:markers stroke fill"
   d="m 333.58197,127.41484 -1.89697,-0.9157 C 323.84304,103.07204 301.9067,87.27058 277.20439,87.257016 H 168.17691 l 13.08071,39.242124 c -15.20607,7.6 -22.95003,24.85981 -18.50939,41.26949 l 11.96903,37.21476 h 13.08071 v -32.70177 c 0,0 39.24211,0 58.86317,-6.54035 l 58.86319,-19.62108 26.16141,45.78249 v 13.08071 h 13.0807 l 7.71759,-38.6535 c 3.16541,-15.74947 -4.56574,-31.66851 -18.90206,-38.91505 z"
   id="path2-3-9" /></svg>