<?xml version="1.0" encoding="UTF-8" standalone="no"?>
<svg
   xmlns:dc="http://purl.org/dc/elements/1.1/"
   xmlns:cc="http://creativecommons.org/ns#"
   xmlns:rdf="http://www.w3.org/1999/02/22-rdf-syntax-ns#"
   xmlns:svg="http://www.w3.org/2000/svg"
   xmlns="http://www.w3.org/2000/svg"
   xmlns:xlink="http://www.w3.org/1999/xlink"
   xmlns:sodipodi="http://sodipodi.sourceforge.net/DTD/sodipodi-0.dtd"
   xmlns:inkscape="http://www.inkscape.org/namespaces/inkscape"
   id="Layer_1"
   data-name="Layer 1"
   viewBox="0 0 1024 1024"
   version="1.1"
   sodipodi:docname="mercode-icon-gradient.svg"
   inkscape:version="0.92.4 5da689c313, 2019-01-14">
  <metadata
     id="metadata23">
    <rdf:RDF>
      <cc:Work
         rdf:about="">
        <dc:format>image/svg+xml</dc:format>
        <dc:type
           rdf:resource="http://purl.org/dc/dcmitype/StillImage" />
        <dc:title>Artboard 1</dc:title>
      </cc:Work>
    </rdf:RDF>
  </metadata>
  <sodipodi:namedview
     pagecolor="#ffffff"
     bordercolor="#666666"
     borderopacity="1"
     objecttolerance="10"
     gridtolerance="10"
     guidetolerance="10"
     inkscape:pageopacity="0"
     inkscape:pageshadow="2"
     inkscape:window-width="1326"
     inkscape:window-height="718"
     id="namedview21"
     showgrid="false"
     inkscape:pagecheckerboard="true"
     inkscape:zoom="0.32800546"
     inkscape:cx="348.89867"
     inkscape:cy="512"
     inkscape:window-x="40"
     inkscape:window-y="25"
     inkscape:window-maximized="1"
     inkscape:current-layer="Layer_1" />
  <defs
     id="defs4">
    <linearGradient
       inkscape:collect="always"
       id="linearGradient834">
      <stop
         style="stop-color:#ff1d1f;stop-opacity:0.94117647"
         offset="0"
         id="stop830" />
      <stop
         style="stop-color:#ffa206;stop-opacity:1"
         offset="1"
         id="stop832" />
    </linearGradient>
    <style
       id="style2">.cls-1{fill:#fff;}</style>
    <linearGradient
       inkscape:collect="always"
       xlink:href="#linearGradient834"
       id="linearGradient836"
       x1="-103.65491"
       y1="-27.636724"
       x2="1075.8119"
       y2="1054.6622"
       gradientUnits="userSpaceOnUse" />
  </defs>
  <title
     id="title6">Artboard 1</title>
  <g
     id="katman_2"
     data-name="katman 2"
     style="fill-opacity:1;fill:url(#linearGradient836)">
    <g
       id="katman_3"
       data-name="katman 3"
       style="fill-opacity:1;fill:url(#linearGradient836)">
      <path
         class="cls-1"
         d="m 976.79,296.75 c -3.2,-7 -6.55,-14 -10.32,-21 A 516.37,516.37 0 0 0 909.41,188.82 C 597.16,335.32 225.36,380.9 13.72,395.08 a 509.25,509.25 0 0 0 22.4,305.77 C 310.75,611.34 749.88,454.07 974.78,298.66 Z"
         id="path8"
         inkscape:connector-curvature="0"
         style="fill:url(#linearGradient836);fill-opacity:1" />
      <path
         class="cls-1"
         d="M 275.77,58 A 509.86,509.86 0 0 0 53.92,283.29 C 180.92,244.15 465.8,146.75 637.5,15.63 A 510.59,510.59 0 0 0 275.77,58 Z"
         id="path10"
         inkscape:connector-curvature="0"
         style="fill:url(#linearGradient836);fill-opacity:1" />
      <path
         class="cls-1"
         d="m 963,753.55 a 1533.14,1533.14 0 0 0 -522.19,264.83 v 0 0.56 A 511.75,511.75 0 0 0 963.58,753.81 Z"
         id="path12"
         inkscape:connector-curvature="0"
         style="fill:url(#linearGradient836);fill-opacity:1" />
      <path
         class="cls-1"
         d="M 1019.61,448.14 258,955.26 a 4.31,4.31 0 0 0 0,0.88 516.07,516.07 0 0 0 100.72,44.34 h -0.37 C 472.14,898.23 705,717.3 1008.42,629.23 l 2.16,-0.77 A 511.61,511.61 0 0 0 1020,448.4 Z"
         id="path14"
         inkscape:connector-curvature="0"
         style="fill:url(#linearGradient836);fill-opacity:1" />
      <path
         class="cls-1"
         d="M 184.24,899.88 C 642.71,637.53 356,648.31 86,794.23 l -0.47,0.57 a 508.31,508.31 0 0 0 94.42,106.68 30.39,30.39 0 0 1 4.29,-1.6 z"
         id="path16"
         inkscape:connector-curvature="0"
         style="fill:url(#linearGradient836);fill-opacity:1" />
    </g>
  </g>
</svg>
